<svg xmlns="http://www.w3.org/2000/svg" class="menu-logo-line" width="113.7" height="4.83" viewBox="0 0 113.7 4.83">
    <g id="menu-logo_line" transform="translate(-6.76 -3.85)">
      <path id="Path_1120" data-name="Path 1120" d="M11.033,6.25c-.1,0-.2,0-.31.008-.061-.212.151-.163.148-.318C11.006,5.955,11.048,6.072,11.033,6.25Z" transform="translate(-2.456 -1.299)" fill="#ffab00" fill-rule="evenodd"/>
      <path id="Path_1121" data-name="Path 1121" d="M68.224,6.25c.132-.03.148.057.159.155.091.011.136-.019.151-.083.106.023.068.2.083.31-.087-.185-.4.129-.227.163.015.068-.027.076-.076.079s-.1,0-.155,0C68.255,6.6,68.33,6.591,68.224,6.25Z" transform="translate(-38.157 -1.488)" fill="#ffab00" fill-rule="evenodd"/>
      <path id="Path_1122" data-name="Path 1122" d="M96.784,5.684c.2-.026.254.1.238.31.238.053.087-.273.382-.163-.125.159.008.1.008.314-.443-.026-.53.254-1.083.023C96.425,5.949,96.637,5.843,96.784,5.684Z" transform="translate(-55.664 -1.138)" fill="#ffab00" fill-rule="evenodd"/>
      <path id="Path_1123" data-name="Path 1123" d="M23.781,7.334c.079,0,.155,0,.231,0,0,.079,0,.155,0,.235-.076,0-.061-.095-.079-.155-.057.061-.254.488.008.39-.083.326-.307-.011-.314-.227A.22.22,0,0,0,23.781,7.334Z" transform="translate(-10.484 -2.163)" fill="#ffab00" fill-rule="evenodd"/>
      <path id="Path_1124" data-name="Path 1124" d="M82.54,6.19c.254.068.22.439.545.223-.053.242.216.148.163.39a.84.84,0,0,0-.621-.144C82.643,6.417,82.374,6.36,82.54,6.19Z" transform="translate(-47.06 -1.454)" fill="#ffab00" fill-rule="evenodd"/>
      <path id="Path_1125" data-name="Path 1125" d="M134.407,5.368a.694.694,0,0,1-.14.708c-.273-.053.027-.39-.167-.625C134.236,5.458,134.259,5.352,134.407,5.368Z" transform="translate(-79.136 -0.942)" fill="#ffab00" fill-rule="evenodd"/>
      <path id="Path_1126" data-name="Path 1126" d="M91.21,6.655c0,.079,0,.155,0,.235-.242-.083-.2.026-.386-.072-.019-.25.125-.341.3-.4C91.119,6.7,90.82,6.761,91.21,6.655Z" transform="translate(-52.243 -1.597)" fill="#ffab00" fill-rule="evenodd"/>
      <path id="Path_1127" data-name="Path 1127" d="M154.417,5.19c.2,0,.087.333.39.227-.019.31-.242-.053-.307.163A.251.251,0,0,1,154.417,5.19Z" transform="translate(-91.723 -0.833)" fill="#ffab00" fill-rule="evenodd"/>
      <path id="Path_1128" data-name="Path 1128" d="M8.141,8.27c0,.106,0,.208.008.314-.2.026-.2-.163-.238-.31C7.986,8.27,8.065,8.27,8.141,8.27Z" transform="translate(-0.715 -2.747)" fill="#ffab00" fill-rule="evenodd"/>
      <path id="Path_1129" data-name="Path 1129" d="M38.268,7.646c-.087.159-.515.538-.538.087C37.953,7.961,37.968,7.578,38.268,7.646Z" transform="translate(-19.246 -2.354)" fill="#ffab00" fill-rule="evenodd"/>
      <path id="Path_1130" data-name="Path 1130" d="M145.606,6.035c-.08,0-.155,0-.231,0a.378.378,0,0,1,.083.235.4.4,0,0,1-.318-.386C145.382,5.892,145.594,5.672,145.606,6.035Z" transform="translate(-85.997 -1.228)" fill="#ffab00" fill-rule="evenodd"/>
      <path id="Path_1131" data-name="Path 1131" d="M68.257,8.039c-.14.011-.167-.095-.31-.072-.125-.428.6-.026.454-.477a.29.29,0,0,1,.314.307C68.461,8.031,68.067,7.588,68.257,8.039Z" transform="translate(-38.015 -2.262)" fill="#ffab00" fill-rule="evenodd"/>
      <path id="Path_1132" data-name="Path 1132" d="M70.6,8.605c-.212-.121-.352-.322-.776-.22.155-.405.693-.083.689-.326.265.087.125.151.466.068,0,.106,0,.208.008.314C70.816,8.42,70.513,8.23,70.6,8.605Z" transform="translate(-39.189 -2.616)" fill="#ffab00" fill-rule="evenodd"/>
      <path id="Path_1133" data-name="Path 1133" d="M268.132,4.18c0,.2-.14.246.008.394.068-.038.136-.072.151-.159.182.076.167.356.167.625-.473-.008-.314-.681-.787-.689C267.674,4.146,267.927,4.188,268.132,4.18Z" transform="translate(-162.144 -0.205)" fill="#ffab00" fill-rule="evenodd"/>
      <path id="Path_1134" data-name="Path 1134" d="M237.092,5c-.144.193-.151.515-.454.556.125-.159-.008-.1-.008-.314C236.834,5.208,236.865,5.008,237.092,5Z" transform="translate(-142.854 -0.715)" fill="#ffab00" fill-rule="evenodd"/>
      <path id="Path_1135" data-name="Path 1135" d="M243.609,5.349c.432-.083.439.587.174.935-.17-.008-.17-.193-.163-.39.076,0,.155,0,.231,0-.2-.341-.416-.352-.481-.931.091.011.136-.019.155-.079.159.019.159.2.238.31C243.794,5.323,243.7,5.338,243.609,5.349Z" transform="translate(-147.042 -0.64)" fill="#ffab00" fill-rule="evenodd"/>
      <path id="Path_1136" data-name="Path 1136" d="M249.788,4.76a.348.348,0,0,0,.235.072c-.125.254-.11.17-.068.549-.185.034.034-.356-.235-.231A.488.488,0,0,0,249.788,4.76Z" transform="translate(-150.989 -0.566)" fill="#ffab00" fill-rule="evenodd"/>
      <path id="Path_1137" data-name="Path 1137" d="M79.2,8.365c-.015-.129.473-.136.466-.008C79.737,8.645,79.321,8.377,79.2,8.365Z" transform="translate(-45.018 -2.744)" fill="#ffab00" fill-rule="evenodd"/>
      <path id="Path_1138" data-name="Path 1138" d="M208.037,5.79c.246.083.2-.026.39.072-.136.163-.284.026-.148.314C208.037,6.218,208.03,6.017,208.037,5.79Z" transform="translate(-125.084 -1.206)" fill="#ffab00" fill-rule="evenodd"/>
      <path id="Path_1139" data-name="Path 1139" d="M262.845,4.881c.3-.132.034.337.238.307C262.924,5.472,262.614,5.033,262.845,4.881Z" transform="translate(-159.094 -0.626)" fill="#ffab00" fill-rule="evenodd"/>
      <path id="Path_1140" data-name="Path 1140" d="M147.4,7.721c-.117.1-.2.348-.382.163C147.077,7.729,147.285,7.6,147.4,7.721Z" transform="translate(-87.165 -2.376)" fill="#ffab00" fill-rule="evenodd"/>
      <path id="Path_1141" data-name="Path 1141" d="M154.756,7.448c.1,0,.2,0,.31-.008,0,.076-.095.061-.151.079a.378.378,0,0,1,.083.235C154.79,7.784,154.741,7.652,154.756,7.448Z" transform="translate(-91.971 -2.231)" fill="#ffab00" fill-rule="evenodd"/>
      <path id="Path_1142" data-name="Path 1142" d="M224.2,6.08c-.151.11-.477.28-.617.167C223.6,6,223.962,6.106,224.2,6.08Z" transform="translate(-134.744 -1.386)" fill="#ffab00" fill-rule="evenodd"/>
      <path id="Path_1143" data-name="Path 1143" d="M237.48,6.132c.034-.246.348-.223.534-.322C237.949,6.026,237.726,6.09,237.48,6.132Z" transform="translate(-143.382 -1.218)" fill="#ffab00" fill-rule="evenodd"/>
      <path id="Path_1144" data-name="Path 1144" d="M69.42,9.76a3.318,3.318,0,0,1,.4.462c-.1-.079-.288-.072-.39-.148C69.424,9.968,69.424,9.862,69.42,9.76Z" transform="translate(-38.94 -3.673)" fill="#ffab00" fill-rule="evenodd"/>
      <path id="Path_1145" data-name="Path 1145" d="M271.235,5.79a1.777,1.777,0,0,1-.148.473C271.042,6.142,270.917,5.778,271.235,5.79Z" transform="translate(-164.228 -1.205)" fill="#ffab00" fill-rule="evenodd"/>
      <path id="Path_1146" data-name="Path 1146" d="M22.546,10.958c.083-.231.254.095.235.231-.163.034-.2-.049-.31-.072,0-.076.095-.064.151-.083C22.637,10.969,22.595,10.962,22.546,10.958Z" transform="translate(-9.763 -4.367)" fill="#ffab00" fill-rule="evenodd"/>
      <path id="Path_1147" data-name="Path 1147" d="M243.194,6.754c.076,0,.155,0,.231,0-.049.242-.053.151.008.39C243.134,7.246,243.2,6.958,243.194,6.754Z" transform="translate(-146.931 -1.802)" fill="#ffab00" fill-rule="evenodd"/>
      <path id="Path_1148" data-name="Path 1148" d="M294.08,7.608c.242-.042.3.106.466.148-.125.159.008.1.008.314C294.413,7.9,294.11,7.9,294.08,7.608Z" transform="translate(-178.556 -2.331)" fill="#ffab00" fill-rule="evenodd"/>
      <path id="Path_1149" data-name="Path 1149" d="M24.279,14.133c-.189-.178.117-.212.148-.394.167-.015.042.276.083.39C24.435,14.129,24.355,14.133,24.279,14.133Z" transform="translate(-10.849 -6.145)" fill="#ffab00" fill-rule="evenodd"/>
      <path id="Path_1150" data-name="Path 1150" d="M33.35,14.047c.2-.125.269.148.541-.087,0,.11-.008.223.083.235-.061.231-.25-.042-.386.008.068.114.121.246.314.227-.182.307-.227-.03-.541.011C33.532,14.361,33.5,14.183,33.35,14.047Z" transform="translate(-16.524 -6.283)" fill="#ffab00" fill-rule="evenodd"/>
      <path id="Path_1151" data-name="Path 1151" d="M61.432,14.67c.114.068.3.057.238.31-.159.038-.2-.049-.31-.072A.352.352,0,0,0,61.432,14.67Z" transform="translate(-33.931 -6.724)" fill="#ffab00" fill-rule="evenodd"/>
      <path id="Path_1152" data-name="Path 1152" d="M133.312,14.361a.458.458,0,0,0-.072.314c-.261.064-.106-.318-.39-.227C132.846,14.233,133.21,14.255,133.312,14.361Z" transform="translate(-78.359 -6.484)" fill="#ffab00" fill-rule="evenodd"/>
      <path id="Path_1153" data-name="Path 1153" d="M204.52,13.72a.37.37,0,0,0,.235.076c.008.125-.03.3.083.31C204.615,14.254,204.615,13.977,204.52,13.72Z" transform="translate(-122.899 -6.134)" fill="#ffab00" fill-rule="evenodd"/>
      <path id="Path_1154" data-name="Path 1154" d="M189.216,14.44c.231,0,.269.2.469.227C189.579,14.849,189.178,14.671,189.216,14.44Z" transform="translate(-113.386 -6.581)" fill="#ffab00" fill-rule="evenodd"/>
      <path id="Path_1155" data-name="Path 1155" d="M272.339,13.48c-.015-.17.273-.042.386-.087a.369.369,0,0,0-.072.235c-.076,0-.155,0-.231,0C272.43,13.544,272.4,13.495,272.339,13.48Z" transform="translate(-165.045 -5.928)" fill="#ffab00" fill-rule="evenodd"/>
      <path id="Path_1156" data-name="Path 1156" d="M7.048,7.2c.091-.254-.25-.057-.159-.31.462.114.148.625.708.693.276-.148-.144-.212-.087-.39.193.36.8-.2.856.3.095-.382.333-.091.613-.246-.159-.151-.485-.125-.549-.379-.1.023-.076.159,0,.155-.712.1.212-.579.3-.867.246.223.466.072.772-.015.045.2-.443.276-.144.473-.008.2-.261.026-.31.008.212.254.348.594.708.693.03.132-.057.148-.151.159.14.155.284.015.159.31.114-.042.193-.121.307-.163-.053-.061-.125-.212,0-.235-.026-.106-.193-.061-.31-.072,0-.106,0-.208-.008-.314.246-.072.167.2.314.227.125.019.132-.076.231-.083-.072-.189-.432-.076-.394-.382-.129.212-.227.019-.3.318-.1-.026-.125-.136-.235-.151a1.1,1.1,0,0,1,.534-.4.214.214,0,0,0-.159-.231c0-.148.254-.061.227-.238.132.049.053.178-.072.159.015.064.079.076.079.155.076-.053.076-.182.231-.159-.045.333.655.151.394.462.235.117.223-.439-.008-.314.057-.174.363-.11.382-.322.151.36.386-.1.541.068.045.17-.148.114-.151.238.038.061.072.132.159.148.095-.3.25-.238.386-.008.064-.015.076-.079.151-.079-.015-.091-.14-.064-.235-.076.095-.2.155-.25.382-.163.038.356-.091.416.091.7.114-.095.314-.1.382-.242-.091.356.439.553.712.768-.151.288-.511.061-.469-.3-.526.121-.871-.216-1.4-.443-.273.026.2.288-.072.314.216.212.432.344.549.458-.28-.026-.6-.008-.7-.22-.061.015-.076.079-.151.083-.026.189.144.167.083.39-.053,0-.1,0-.155,0,.151.265.269-.14.462-.087-.042.435.2.068.466.148a.444.444,0,0,1-.458.246.214.214,0,0,0,.159.231c.273-.057.28-.386.685-.485-.011.091.019.14.079.155a4.125,4.125,0,0,0-.53.56c.3.034.3-.458.538-.246.015.193-.117.246-.148.394.238.053.144-.22.382-.163-.095.337.223.242.318.386.049-.193.068-.208.382-.242.038-.174-.151-.11-.159-.231-.2.011-.076.337-.382.242,0-.106,0-.208-.008-.314.246.083.174,0,.462-.008-.068-.061-.049-.212-.159-.231.117-.008.136-.193.307-.083a.393.393,0,0,0-.235-.231.532.532,0,0,0-.148.238c-.348-.318.36-.257.379-.477.125.163.276.606-.064.628a1.28,1.28,0,0,0,.238.307c-.064.117-.11.25-.307.242-.068.2.284.466-.068.473-.03.246.212.2.238.386.061-.068.212-.053.231-.163.193.026.064.356-.151.238-.087.019-.042.079,0,.079-.182.189-.443-.22-.549-.382-.288.011-.22.091-.466.008-.076.322.473-.019.318.386-.382.049-.859-.182-.784-.534-.125-.019-.132.076-.231.083.034.148.223.136.163.386-.231.061-.708.045-.541.091-.288.246-.212-.575-.628-.458-.114.28.265.042.235.231.064.352-.216-.114-.151.238-.31.015-.447-.322-.538.091-.14-.117-.072-.458-.318-.466.015-.163.341-.026.382-.163a1.415,1.415,0,0,0-.617.011,1.107,1.107,0,0,1,.22-.553.214.214,0,0,0-.159-.231c-.068.394-.375.56-.681.719-.03.129.288-.011.307-.083.132.182.413.2.4.541-.246.072-.242-.117-.39-.148.057.254-.329.163-.609.405-.163-.454-.326.25-.693.091a.441.441,0,0,1-.083-.31c-.076,0-.155,0-.231,0-.008.333-.867.049-.784-.454.344-.042.409-.11.617-.011-.011-.2-.291-.121-.39-.227.068-.14.31-.106.223-.4.11,0,.22.008.231-.083.151.144.064.144.31.072.083-.023.049-.155.151-.159a.526.526,0,0,0-.235-.151c-.114.034.034.1,0,.235-.329-.049-.466-.307-.7-.454-.1-.038-.026.39.163.31-.095.2-.167.238-.068.469-.606.2-.382,1.03-.439,1.261m.14-1.276c0-.076-.095-.061-.155-.076.072-.106.257-.106.3-.242a.458.458,0,0,0-.541-.064m1.064-.882c-.053.242.216.148.163.39.227.015.235-.182.462-.167.95.212-.42-.159-.545-.223.061-.019.151,0,.151-.079A.361.361,0,0,0,7.824,7.495ZM10.947,9c-.185-.151.216-.375-.008-.469C10.8,8.68,10.595,9.214,10.947,9Zm.852-.015c.114-.015.288.023.307-.083-.322-.174.246-.11.227-.238a2.945,2.945,0,0,1-.545-.144C11.8,8.8,11.878,8.733,11.8,8.983Zm.776.22c.242-.038.31-.288.466-.008,0-.155.208-.1.148-.318a1.365,1.365,0,0,1-.7.015C12.476,9.039,12.582,9.062,12.574,9.2Zm-3.857.39c.178-.011.416-.352.223-.473-.079.28-.386-.269-.462.008A.375.375,0,0,1,8.717,9.592Zm-.776-.22c.3-.189.288.091.621.068C8.6,9.149,7.964,9.115,7.941,9.373Z" transform="translate(0 -1.355)" fill="#ffab00" fill-rule="evenodd"/>
      <path id="Path_1157" data-name="Path 1157" d="M26.866,9.846c.019-.163.212.114.231-.159-.132-.148-.519.034-.7-.064-.064.144-.193.22-.223.4-1.635-.265-.962-1.647-1.287-2.638.382-.076.6-.314.45-.712.227.17.185.5.469.227-.042.163-.114.3-.382.242.208.2-.132.129-.227.238.095.1.034.125,0,.235.132-.072.291-.269.155,0,.019.083.155.049.159.155.235-.1-.091-.269-.008-.469.159-.049.216-.2.462-.167-.019.447-.083.462.015.784.269.064.394-.681.14-.628-.125-.379.22-.3.22-.553.14.189.84,0,.628.458-.208.057-.151-.159-.238-.231-.068.034-.136.072-.151.159.038.023.64.352.693-.091.28.231-.144.416-.3.477a.482.482,0,0,1,.008.39.376.376,0,0,1,.231-.083c-.265-.609.712-.413.519-1.185.2-.049.28.026.235.231.1.008.227-.322.307-.083.091-.015.064-.144.072-.235.238.049.151.053.386-.008-.076.223-.3.106-.148.394-.413.015-.061.015-.072.235-.22.019-.2-.216-.314-.307-.14-.008-.163.1-.307.083.015.144.261.042.31.151.023.291-.288.3-.14.708-.265.068-.329-.079-.466-.148-.106.026-.061.2-.072.314.185.03.167-.148.386-.087a.348.348,0,0,0-.072.235c-.185.034-.17-.14-.386-.072.242.265-.1.246.091.625.1-.03.117-.14.227-.163.189.042-.227.125-.068.394a.369.369,0,0,0-.235-.072c0,.079,0,.155,0,.235.212.053.151-.159.307-.163A.292.292,0,0,1,28.1,9.2c-.28-.144-.284.038-.541.091a.378.378,0,0,1,.083.235c-.064-.015-.079-.076-.155-.076-.11.132-.14.447.011.549C27.252,10.138,27.131,9.8,26.866,9.846Zm-.954-1.234c.015-.114.125-.132.151-.238-.257.129-.337-.326-.466-.068C25.795,8.309,25.715,8.608,25.912,8.612Zm-.053,1.1c.151-.026.155.1.235.151,0-.155.208-.1.148-.314-.193.106-.246-.3-.31-.072C26.188,9.543,25.848,9.63,25.859,9.71Z" transform="translate(-11.267 -1.665)" fill="#ffab00" fill-rule="evenodd"/>
      <path id="Path_1158" data-name="Path 1158" d="M31.75,14.632c.182-.144.106-.367.3-.632.17.008.17.193.163.39-.125.023-.136-.072-.235-.072,0,.265.36.151.469.3C32.265,14.617,31.962,14.621,31.75,14.632Z" transform="translate(-15.53 -6.308)" fill="#ffab00" fill-rule="evenodd"/>
      <path id="Path_1159" data-name="Path 1159" d="M75.36,8.039c-.087-.322.076-.485-.246-.621.03.185.129.291.087.545-.22-.132-.36-.439-.7-.22.189-.227.545-.288.526-.715-.083-.22-.326.03-.462.008-.079-.28.3-.114.462-.167-.015-.17-.2-.163-.39-.148a.369.369,0,0,0,.072-.235c.174-.061.606.129.538-.167.231.288.651.379.56,1.007.155-.106.132-.382.458-.322-.023-.091-.348-.318-.008-.314-.1-.2-.167-.242-.39-.148.053-.242-.216-.148-.163-.39.273-.091.246-.477.609-.481-.087-.095-.068-.159.076-.159-.079.36-.4.485-.526.795.193.011.238-.125.307-.242.261.068.042.144.083.39.367,0,.307-.42.689-.405-.061.2-.265.254-.379.4.257.227.78.3.7.454.208.049.148-.163.227-.238-.015-.064-.079-.076-.079-.155-.148.038-.136.227-.382.163,0-.11.008-.223-.083-.235.193-.121.6.242.613-.326a.211.211,0,0,0-.148.238c-.2,0-.087-.333-.394-.227,0-.182-.008-.363-.011-.549-.072.136-.284.132-.223.394-.14.011-.167-.091-.31-.072.068-.326.238-.329.371-.712.132-.019.2.129.231,0,.008.36.148.216.473.382-.03.276-.155.333-.382.242.129.469.405,0,.617-.091-.095-.291-.344-.617.14-.628.015.064-.027.072-.076.079-.027.189.352-.049.238.231-.125.026-.136-.072-.235-.072,0,.117.322.344.008.314a.378.378,0,0,0,.39.148c0,.39-.291.363-.534.322-.03.167.057.208.083.31.1-.163.405-.117.458-.322.212.068-.231.182.008.314.223-.019.379-.314.538-.167-.151.238.151.45-.223.473-.011-.14.091-.167.072-.314-.28.057-.341.238-.541.011,0,.185.136.227.087.469-.049,0-.1,0-.155,0,.356.068.837.216.92-.333a1.255,1.255,0,0,1,.015.7.368.368,0,0,0,.541-.011,1.619,1.619,0,0,0-.473-.462c.329-.235.659-.291,1.071-.568a.393.393,0,0,1-.227.238c.413.106.053.329.621.144-.132-.151,0-.1-.008-.314.11.015.03.231.159.231.231-.1-.091-.265-.008-.469-.182.026-.288.129-.538.091.008-.17.193-.17.382-.163-.068-.291-.269,0-.39-.148-.163.45-.655.068-1,.178,0,.155.008.314.008.469-.254.1-.091-.64-.238-.386-.087-.068-.026-.144-.087-.39a1.494,1.494,0,0,1,.621.064c-.026-.31-.322-.329-.545-.223-.061-.488-.117-.333.375-.632.011.14-.091.167-.072.314.076-.053.076-.182.227-.163-.027.1-.132.125-.151.238a1.427,1.427,0,0,0,.458-.242c.216.466.276.189.549.458a1,1,0,0,1,.3-.553c.182.064-.057.344-.068.469a1.817,1.817,0,0,0,.689-.326c.208.11-.28.182-.144.473-.3.019-.03-.064-.083-.235-.167.144-.488.136-.454.477.257.076.375-.42.386.072.443-.121.091-.564.606-.64-.061.39.193.144.231,0,.273.095-.352.386.159.31a.369.369,0,0,0-.072.235c-.1,0-.2,0-.31.008.121.11.076.4.091.625.193-.14.375-.208.541-.011a.292.292,0,0,0,.3-.318c.212.367.545-.015.772-.095a.666.666,0,0,0-.068.469c-.291-.148-.333.439-.693.091-.182.03-.068.344-.223.4-.026.189.352-.049.238.231.17-.011.026-.333.068-.469.231.212.288.242.7.144-.14-.291.091-.36-.008-.469.008-.174.329-.042.462-.087.087.2-.284.382-.231.083-.136.061-.008.144,0,.235.409.064.178-.492.609-.405-.057.341-.413.432-.22.632-.008.193-.261.026-.31.008.087.095.072.159-.076.159.015.064.08.076.08.155.348.008.371-.3.689-.326a.216.216,0,0,1-.231.163.441.441,0,0,1,.083.31c.125-.22.2-.042.462-.167-.045.072-.091.144,0,.155-.053.14-.14.015-.231,0,.216.22-.034.416-.064.628A.722.722,0,0,1,85,7.54c-.026-.182-.159-.322-.008-.469-.072-.057-.31,0-.541-.068.257-.435.167-.867.36-1.261.2.2.061.344.4.462.182,0-.03-.212-.159-.155.015-.269.405-.167.454-.4.208.129-.144.45.167.545.083-.132.008-.261-.011-.549.045-.11.3-.019.307-.163.2.015-.1.136.008.314.2-.011.076-.337.382-.242-.064.117-.057.3-.307.238,0,.079,0,.155,0,.235.238.053.091-.273.382-.163a1.319,1.319,0,0,1-.9,1.348c.011.148.257.049.238.231.144-.117.337-.182.3-.477.178-.026.091.223.238.231.072-.068.242-.42.382-.167.212.053-.064-.367.148-.314-.015-.091-.14-.064-.235-.072-.042-.246.159-.254.382-.242.027-.189-.144-.167-.087-.39.178-.038.2-.348.382-.163q.028.256-.227.238c.254.265.424-.2.534-.326-.023-.163-.341-.015-.39-.148-.027-.2.3-.068.227-.318a.429.429,0,0,0,.31.072c.023.125-.072.136-.072.235.318.057.136-.379.458-.322,0,.076.095.057.155.076-.148.269-.042.185.235.151-.083.114-.08.193.083.231-.057.2-.276-.216-.386.008.023.216.435.019.394.307-.326-.185-.367.284-.39-.148-.432.466.049.674.466.148.2.079.485.326.322.541-.117-.231-.2,0-.39-.148-.083.023-.049.155-.151.159.348-.034.344.193.7.3,0-.076-.095-.061-.155-.076.242-.216.382-.121.609-.405.053.25-.276.114-.072.314.2.019.25-.114.223-.318-.227-.333-.644-.042-.553-.617-.273.394-.613-.235-.632-.613.079-.151.352-.117.458-.242a4.836,4.836,0,0,0,.167.7c.223-.072.087-.117.072-.314.591.068.344.7.56.927.246.034.269-.148.538-.087-.049-.064-.367-.238-.386-.072a.347.347,0,0,1,.068-.473c-.072-.136-.273-.136-.39-.227.159-.155.117-.5.454-.477-.068.189-.307.212-.22.553a1.82,1.82,0,0,0,.613-.17c-.023-.163-.341-.015-.39-.148.049-.291.447.235.382-.163.28.227.257.034.617-.011-.026.1-.132.125-.148.238.284.045.291-.174.538-.167a.5.5,0,0,0-.068.394c.246-.095.678-.053.454-.4.386.227.091.678.481.852a2.337,2.337,0,0,1-.78-.3c-.11.019-.023.235-.151.238.3.121.636.409.477.772a.708.708,0,0,0-.469-.3c.14.148.1.481.4.462-.019.083-.155.057-.151.159.2.25.318.2.469.3-.148.11-.3.394-.534.322a.356.356,0,0,1,.079.235c.238,0,.182-.288.458-.246-.027.106-.133.125-.151.238.257-.026.352-.466.613-.246a.532.532,0,0,1-.227.163c.023.083.155.049.159.155.144-.015.042-.265.148-.318.11.015.03.235.159.231.1-.026.061-.2.072-.314-.015-.091-.144-.064-.235-.072.049-.155.2-.212.382-.242.242.4-.121.572-.136.943.125-.132.2-.322.458-.322-.038.117-.11.2-.148.318a.376.376,0,0,1,.231-.083c-.011.064-.076.079-.072.159.39-.148-.329-.878.291-.946.038.163-.049.208-.072.314.015.064.079.076.079.155.064-.015.076-.079.155-.083-.083-.072-.3-.609-.091-.625.011-.106-.45-.091-.159-.231-.072-.045-.291-.318-.31-.151-.257-.019.2-.344-.083-.39.2-.269.587-.352.6-.795a.7.7,0,0,0-.382.322,1.959,1.959,0,0,0-.621-.144c.284-.167.594-.477.844-.25.114-.038-.03-.1,0-.235.3.121.095.125.386-.008a.507.507,0,0,0,.008.394c.288-.125.3-.4.693-.25-.129.3-.231-.091-.068.394-.591-.151-.738-.034-1.226.572.594.174.893-.273,1.544-.11.227-.072-.182-.114-.083-.31.25.265.9-.227.685-.64.148-.038.193-.174.382-.163-.238.291,0,.7-.288,1.026.238.053.087-.273.382-.163-.159.159.087.178.159.31-.106.231-.428-.178-.382.242.136-.019.212.17.39.307a.347.347,0,0,0,.148-.318c.136.125.367.148.469.3.125.019.132-.076.231-.083-.265-.095-.223-.511-.628-.458,0-.2.144-.246-.083-.31.076-.132.326-.091.458-.167-.174.5.587.1.78.3.057-.125.242-.121.227-.318a1.49,1.49,0,0,0,.394.307c.159-.049.216-.2.462-.167.208-.36.405-.731.912-.8-.015.14-.129.182-.307.163,0,.079,0,.155,0,.235.4-.03.447-.329.454-.556.231.257.31-.193.462-.008-.159.208-.314.628.015.859.064-.015.076-.079.155-.079-.079-.1-.079-.291-.238-.307.019-.087.151-.057.151-.159.3.28.25-.129.617-.17.087.2-.227.379.008.469-.011.091-.14.068-.231.083.015.064.079.076.079.155.284-.038-.087.462.318.386.015.068-.03.076-.076.079,0,.053,0,.106,0,.155-.083-.019-.057-.155-.159-.155-.276.148.14.212.087.39.068-.038.136-.072.151-.159.223.121-.208.25-.223.394.117.182.167.144.087.39.375-.174.863-.64.753-1.033.151-.034.363-.163.541-.087-.019.159-.208.155-.227.318.042.114.117.2.163.31.227-.072-.106-.2-.008-.39.2.185.329-.132.382-.322.235.344.443-.095.469.3.045-.136.367,0,.382-.163.257.114-.129.223-.148.318.212.276.3-.216.538-.167-.091-.216-.129-.435.223-.4-.008.14.1.163.083.31.125.019.132-.076.231-.083a.843.843,0,0,0-.549-.379.292.292,0,0,0-.3.318c-.344-.14-.25-.659-.178-1.094.076.132.288.121.238.386.261-.174-.095-.466.3-.477-.2.322.7.765.405.931.106.121.382-.235.613-.246-.026.132.064.148.159.155-.25.159.034.39-.223.473.091.091.223.136.163.39.182-.03.038-.371.3-.318-.045-.159-.235-.148-.083-.31.246-.023.132.341.394.307a.378.378,0,0,1-.382.163c-.008.2.178.185.238.307-.072-.45.492-.023,0,.079.238.3.4-.413.541-.011a1.385,1.385,0,0,0,.227-.318c-.106-.155-.348-.167-.545-.223.155-.454.057-.208-.087-.469.193-.015.242.117.314.227.182-.485.458-.371.606-.64,0,.208-.034.462.163.466-.053.14-.14.011-.231,0,.023.3.356.265.549.379-.307.466.432.14.322.621.469-.182.39-.246.53-.636-.106.269-.36.1-.617.091-.03-.447.432-.344.216-.787.322.189.144-.174.462-.167a1.274,1.274,0,0,0-.061.784c.182-.026.167-.246.3-.318.22.045.087.1.238.307.31-.1.091-.269.223-.473.083.015.057.155.159.155.314-.208-.367-.458.144-.473-.038-.148-.223-.136-.163-.386.136-.011.163.091.31.072.015-.068-.03-.072-.079-.076.174-.064.22.81.329,1.011.14.008.163-.1.307-.083-.008.193.125.238.163.39.155,0,.095-.216.307-.163-.148.121-.276.507.163.39.045.17-.148.114-.151.238.011.148.329-.026.227-.238.25-.1.064.254.31.151-.148.11-.405.117-.458.322.083.026.651-.023.534-.326.3.061.087.405.011.549.238.053.087-.273.382-.163.038.265-.227.238-.3.4.14.083.276-.034.382-.167.163.042.167.117.083.235.269.008.326-.2.538-.246a.288.288,0,0,1-.3.318c.261.03.469.447.78.375-.023.159.023.246.159.231-.14.155-.14.064-.072.314-.148-.03-.276.061-.151.083a1.037,1.037,0,0,1-1.086-.212c.144-.344-.307-.416-.473-.462,0,.053,0,.106,0,.155.363-.019.049.106.39.148a1.611,1.611,0,0,0-.144.473c.167.034.144-.114.148-.238.106.023.068.193.083.31-.246-.008-.591.087-.545-.223.11,0,.22.008.231-.083-.019-.114-.231-.023-.235-.151-.148.2-.185.492.087.545-.019.185-.208-.087-.31-.072.223.379-.178.129-.386.087.4-.257-.231-.114-.239-.386-.231.057.08.167.008.314-.132-.026-.144.064-.151.159-.114-.189-.526-.057-.617.091-.182-.049-.273-.193-.394-.307-.091.015-.064.144-.072.238-.182-.019-.148-.269-.39-.227a.526.526,0,0,0,.235.151c-.072.174-.447,0-.541-.068.125-.136.257-.3.382-.242.314-.477-.477-.072-.4-.462-.216.019-.091.375-.379.322.015-.31-.2-.371-.4-.462-.242.185.17.344.091.625-.242.042-.208-.2-.39-.227.08.1.083.288.163.39.144-.151.193-.011.386-.008-.072.515-.564-.064-.852-.061-.1.261.027.129-.227.238a.636.636,0,0,1-.163-.466c-.379-.026-.3-.076-.617.011,0,.129,0,.261.008.39-.284,0-.352-.216-.549-.3-.061.015-.076.079-.155.079.133.129.318.2.318.466-.242-.091-.344-.333-.625-.379a.574.574,0,0,1,.227-.159c-.027-.106-.193-.061-.31-.072-.045.288.174.3.167.545-.121-.22-.526-.14-.553-.458a.551.551,0,0,0-.151.238c-.182-.023-.148-.269-.39-.227-.208.076.208.14.087.39-.511-.148-.659-.261-1.083-.057-.375.023-.28-.45-.628-.458a.57.57,0,0,0-.14.628.974.974,0,0,1-.477-.617c-.061.015-.076.079-.151.083,0,.076.095.057.155.076-.068.136-.14.273-.382.242.163-.269-.042-.723-.174-.935-.223.144.223.511-.227.318,0,.114.329.242,0,.235.057.246.208.1.39.072-.064.3-.31.064-.541.091-.011.17.068.246.238.231-.485.167-.223-.25-.4-.541-.091.242-.155.42-.382.163-.061.223.114.2.087.39-.2-.087-.632-.681-.4-.7-.027-.106-.2-.061-.31-.072-.015.356.148.208.242.545-.318.076-.435-.163-.534.322-.238-.049-.151-.053-.386.008a.387.387,0,0,1-.083-.235c-.878.288-.454-.962-1.181-1.071a.965.965,0,0,1-.382.242c.011.125.466.352.087.39.076.159.307.155.318.386-.1-.079-.288-.072-.39-.151a1.28,1.28,0,0,0,.238.307c-.064.117-.11.25-.3.242a.356.356,0,0,0-.159-.31c.026-.1.132-.125.151-.238.011-.17-.068-.246-.235-.231-.136.193,0,.223.083.39-.307.121-.579-.125-.538.246-.363-.008-.307-.375-.242-.541-.091-.049-.2-.038-.314-.231-.257.03.208.337-.068.394-.019.208.3.057.238.307-.257.068-.363-.238-.852-.061.008-.14-.1-.163-.083-.31-.257.076-.008.174-.148.314-.288-.106.034-.56-.473-.538-.034.167.114.148.235.151-.011.091-.14.068-.231.083,0,.155.212.095.159.31-.273-.026-.625-.568-.776-.22-.079-.061.023-.276-.163-.39-.318.114,0,.439-.144.628-.394-.019-.53-.235-.4-.617,0,.322-.606.39-.462.087a.217.217,0,0,0-.151.238c-.254-.159-.75-.061-.859-.375-.083.019-.049.155-.151.159.015.087.079.042.076,0,.288.14-.379.386-.462.167-.193.129.155.276.008.469-.435.008-.223-.666-.708-.613.034.121.242.061.159.31-.167.053-.25-.216-.231.083-.22-.011-.333-.129-.318-.386-.307-.117-.155.208-.3.242.053.079.178.079.159.231-.371.114-.81-.238-.469-.382-.023-.163-.341-.015-.39-.148-.144.015-.042.265-.148.318-.136.023-.39-.072-.307.163-.22-.072.106-.212-.083-.31-.182.026-.038.371-.3.318A.724.724,0,0,1,87.8,8.2c-.136.023-.174.136-.148.314-.481-.5-1.052-.363-.466.008,0,.363-.178-.087-.31-.072-.189.011-.011.257.083.235-.606.189-.132-.469-.326-.856.193,0,.242.14.386-.008.03-.246-.242-.174-.163-.466.3-.1.291-.22.375-.632-.189.174-.246.477-.53.56-.061.223.114.2.083.39-.254-.091-.053.254-.307.163,0-.079,0-.159,0-.235-.227,0-.136.477.163.386a1.241,1.241,0,0,1-.458.4c.034.121.246.061.163.31-.174.144-.4-.174-.549-.3-.053.545-.432-.011-.765.409-.042-.246.261-.212.068-.394-.114.072-.3.068-.227.318-.11-.079-.375-.31-.307.083-.473-.015-.662-.163-.78-.379-.087.019-.042.079,0,.079-.03.216-.242.008-.159-.155-.17.015-.027.333-.068.473-.11-.2-.291-.333-.246-.7-.273.185-.049.4-.3.632-.356-.03-.556-.3-.613.17-.186-.087-.08-.53.068-.549-.045-.095-.291.057-.466-.068-.273.026.276.2,0,.235-.25.1-.064-.254-.314-.151-.159.026-.068.291-.227.318-.064.185,0-.276-.087-.469a.393.393,0,0,0-.227.238c-.027.132.064.148.159.155-.22.2-.151.269-.693.17a3.109,3.109,0,0,1-.095-.859c-.45-.068.015.466-.3.4.265.22,0,.2.011.549-.159-.019-.155-.208-.314-.227-.091.015-.064.144-.072.235-.356-.042-.886.023-1.086-.291-.106.026-.061.2-.072.314-.193.019-.42-.375-.386.087-.25-.269-.609-.424-.863-.689-.193.057.148.2.083.39a4.109,4.109,0,0,0-.848.174c-.091-.011-.068-.14-.083-.235-.083.023-.049.155-.151.159-.208.061-.159-.151-.31-.151a.424.424,0,0,1,.3-.318c-.068-.227-.193.106-.386.008a.344.344,0,0,0-.148.314.581.581,0,0,1-.545-.148c.023-.106.193-.068.307-.083-.03-.1-.14-.121-.159-.231-.132.2-.1.087-.386.087.136.307.136.238.011.549-.337-.079-.519-.019-.776-.22-.227.072.182.114.083.31a.874.874,0,0,0-.7.015c.019-.087.151-.057.151-.159-.023.1-.613-.125-.538.246-.439-.042-.5-.731-1.015-.45-.015-.193-.023-.379.148-.394-.087-.227-.322-.3-.549-.382-.019.288.447.064.318.462-.288.087-.254-.159-.39-.227-.25.216.371.189.318.466-.235.061-.284-.076-.466-.068-.227.072.049.25.008.39-.314-.121-.326-.526-.78-.3.023-.261.223-.344.379-.477a.98.98,0,0,0-.549-.3c.023-.31.4-.276.609-.405,0-.155-.212-.095-.163-.31.261.026.114-.348.458-.242-.125-.114-.121-.443.148-.394-.148-.136-.348-.22-.318-.541-.235,0-.185.28-.223.473-.178-.291-.3.307-.31-.072a.551.551,0,0,0-.151.238c.057.246.208.1.386.072-.076.4-.435.541-.14.708-.337-.2-.238.148-.538.167.163.477-.151.1-.22.553.1.22.155-.25.382-.163-.03.151-.163.2-.148.394-.31.034-.564.011-.625-.223-.322.254.132.662.25.935-.246-.008-.462-.045-.469-.3-.159.023-.015.344-.148.394-.159-.045-.03-.394-.314-.307-.1.026-.061.2-.072.314-.159-.019-.159-.2-.238-.31-.087.227-.36.185-.39-.072-.091.015-.061.144-.072.238-.208.057-.151-.159-.238-.231-.185-.026-.167.148-.386.087.034.068.072.14.159.155-.121.246-.25-.155-.39-.151a.081.081,0,0,0,0,.159c-.208.068-.662-.662-.485-1.007a.376.376,0,0,1-.231.083c.136.045,0,.371.163.386-.064.227-.114.091-.307.083.148.394-.072.185-.144.473-.257-.076-.25-.428-.625-.379a.214.214,0,0,0,.159.231c-.155.079-.553.042-.848.174.2-.5-.189-.31-.473-.538q.108-.125.227-.238a1.983,1.983,0,0,0-.859-.375c.015.291.117.193.314.151-.015.2-.155.261.159.231a.521.521,0,0,1-.068.394c-.193.015-.375.023-.39-.148-.023.17-.129.4-.231,0-.076.053-.076.182-.231.163A.253.253,0,0,1,63.678,9c-.265.064-.106-.318-.39-.227-.114.038.03.1,0,.235-.155-.129-.1.008-.31.008a.359.359,0,0,0-.087-.469c-.106.03,0,.136.079.155-.22.019-.28.114-.538.246.11-.231-.348-.22-.231,0-.136.011-.167-.091-.31-.072.019-.352.257-.322.462-.167-.072-.257-.371-.28-.469-.3a2.445,2.445,0,0,1-.144.473.485.485,0,0,1-.386-.072c-.026-.254.083-.379.3-.4.019-.129-.076-.132-.083-.235-.091.015-.064.144-.072.238-.454.034-1.007-.3-1.548-.049.276.038.1.447.549.458-.2-.136-.072-.227-.167-.545a.712.712,0,0,1,.477.617c-.132-.026-.144.064-.151.159-.314-.216-.825-.019-1.242-.288-.106.026-.061.2-.072.314-.409.038-.31-.432-.242-.545-.026-.106-.193-.061-.31-.072.091.246.011.178.008.469-.193.011-.238.151-.386.008.352-.367-.276-.609-.473-.382-.095-.212.167-.64-.015-.863-.125.091-.049.5-.3.242.034.151.034.337.238.307-.011.227-.363.2-.31-.072-.155.159-.068.155-.231,0-.193.057.148.2.083.39.2-.167.367-.008.235.231a.529.529,0,0,1,.466-.008c.026.095-.22.273-.231.083-.178-.019-.083.227-.227.238-.208.057-.151-.159-.235-.231-.231-.015-.375.318-.466.008a.574.574,0,0,0-.151.238c-.11-.015-.03-.235-.159-.231-.136.443-.75-.2-1.166-.212.193-.333-.129-.326-.167-.625.155.023.242-.019.227-.163.1.027.125.136.235.151.216-.121.121-.329-.083-.39.17.238.1.318-.076.079a.22.22,0,0,0-.151.238c-.193.015-.375.023-.39-.148-.064.015-.076.079-.151.079-.011.2.121.242.238.31-.049.106-.235-.064-.307.163.132.045.132.235.238.31-.049.17-.405.011-.314-.227-.261-.026-.117.348-.458.242-.026.132.064.148.159.155-.042.276-.322.076-.314-.151.132.027.144-.064.151-.159-.023-.2-.132.11-.31.008.042-.163.231-.159.072-.314a.206.206,0,0,0,.008.39c-.28.227-.246.011-.3.4-.326-.326-.348-.121-.7-.454-.348.034-.22.238-.3.4a2.943,2.943,0,0,0-.549-.379c-.1.019-.095.235,0,.235-.064.121-.117-.019-.307.083.019-.182-.023-.3-.163-.31-.121.038-.061.246-.307.163-.106.3.216.148.163.39A3.853,3.853,0,0,0,50.3,8.952c.053-.182.3-.371-.083-.39A.212.212,0,0,1,50.44,8.4c-.148-.28-.212.144-.386.087-.011.223.3.178.087.39-.227-.026-.257-.261-.394-.386-.208.076.114.242.008.469-.25.1-.064-.254-.31-.151-.03-.132.057-.148.151-.159-.072-.136-.273-.14-.39-.227-.144.015-.042.265-.148.318-.2.091-.405-.261-.386.087-.114-.038-.2-.114-.31-.151-.182.36-.216.167-.3.477-.189-.212-.424-.015-.625-.3-.053.284-.575.17-1.083.023.079-.348-.212-.31-.242-.541-.1.125-.148.473-.382.242.1.2.167.242.39.148-.072.083-.151.163-.227.238-.246.072-.167-.2-.314-.227-.144.015-.042.265-.148.318-.235.061-.151-.212-.39-.151-.034-.189.136-.174.068-.394.337.1.235.064.307-.163.276.1.155.125.469.148.064-.064.038-.473.3-.553.008-.193.008-.379-.163-.39-.17.015.106.2.008.39-.178.2-.144-.114-.386-.072-.008.223.265.148.163.466-.125-.416-.519-.053-.78-.3.079.25.019.318-.379.4a.962.962,0,0,1,.238.386c-.2-.129-.371.053-.076.079-.333.326-.8,0-.939-.45.076,0,.155,0,.231,0-.095-.1-.034-.121,0-.235-.238-.114-.045-.235-.163-.386-.254.129-.091.587-.144.628-.144.2-.273-.068-.462.087a1.359,1.359,0,0,0-.238-.307c-.254-.091-.053.254-.307.163.333.182-.132.242.087.545-.182.008-.231-.129-.466-.068,0-.11.008-.223-.083-.235,0,.2-.39-.1-.7.015-.042.25.151.238.008.394-.492-.212-1.442-.6-1.238-.053-.3-.034-.356-.314-.628-.379.008-.148.254-.061.227-.238.076,0,.061.095.079.155.227-.125.072-.348-.011-.549-.208.076-.363.132-.466-.068-.2.023.11.132.008.314a.376.376,0,0,1,.231-.083c-.36.231-.212.5-.606.64,0-.2.144-.25-.083-.31a.379.379,0,0,1,.382-.167.606.606,0,0,0-.78-.22c.2-.481-.288-.363-.394-.382-.291-.045.053-.261-.238-.31.125-.11.087-.375.379-.322-.189-.31-.5,0-.852-.14.163.151.322.254.545.148-.3.235-.132.428.015.784a.345.345,0,0,0-.462.087c.14.257.5.026.693-.091-.068.185.276.594-.22.708.174-.178.121-.261-.008-.469-.3.2.136.64-.375.632-.034-.238.2-.4-.087-.469-.008.079-.155.564.087.545-.208.235-.5.121-.772.095.057-.238.28-.405-.163-.39-.125-.276.261-.053.227-.238-.064-.238-.515.447-.541.011-.257.3.2.284.314.307-.057.276-.269.095-.386.008-.14.14.023.242.159.31a1.363,1.363,0,0,1-1.245-.367c-.163.026.087.269.235.231a.857.857,0,0,1-1.09-.447c.227.212.375-.087.3-.4-.261.015-.125-.307-.625-.3a.214.214,0,0,0,.159.231.46.46,0,0,1-.466.008c.4.174.076.45.556.693-.049.242-.053.151.008.39a.577.577,0,0,0-.538.167.29.29,0,0,1-.314-.307.332.332,0,0,1,.31.151c.182-.023.038-.344-.008-.39-.333.284-.485.178-.689.326-.148-.121.072-.273-.238-.307,0-.25.341-.178.458-.322-.03-.144-.394.019-.462.087-.114-.121-.2-.269-.394-.307a.35.35,0,0,0-.473-.462c0-.314-.2-.2-.39-.148.03-.541.617-.163.776.064.064-.015.076-.079.151-.079-.015-.144-.261-.042-.31-.151.375-.447.2-.814.515-1.264a.384.384,0,0,1,.163.39.37.37,0,0,0-.235-.076c.182.17.129.257.008.469.288-.22.575-.488.367-.867.2-.265.454.1.3-.4.091.011.136-.019.155-.083.235-.064.405.492.386-.008.091.011.068.14.083.235.413.095.231-.386.613-.326-.091.3-.386.39-.53.636-.083-.019-.057-.155-.159-.151-.394.095-.2.273-.375.556.3-.31.261.11.7.064a.308.308,0,0,1-.462.087c.008.257.227.3.167.625.193.008.238-.129.382-.163-.322-.469.454-.515.606-.56-.053-.079-.178-.076-.159-.231.1.026.125.136.235.151.061.212-.151.159-.148.318.053.14.322-.14.3-.318a1.32,1.32,0,0,1,.405,1.011c-.14.011-.163-.091-.31-.072.049.163.167.25.238.386.185.026-.049-.356.227-.238.008-.193.008-.379-.163-.386.072-.185.015-.5.3-.477.132.151,0,.1.008.314.42.079.4-.273.768-.25.015.246-.432.042-.3.4-.212.011-.159-.129-.31.008-.034.246.174.3.008.469.6-.1.852-.227,1.071-.568-.31-.193-.076-.288-.394-.307,0-.485-.189-.511-.17-.859.155,0,.1.212.31.151-.125.428.17.238.17.7.333.095.087-.375.379-.322-.151.057.057.466-.223.4.053.079.178.076.159.231.155-.322.553.011.534-.4.163-.042.148.11.159.231.3-.079.057-.4.064-.628.091.011.136-.019.151-.079.174.261.136.326.7.379-.072-.4-.541,0-.553-.538.3-.129.519-.064.821-.216.042.242-.159.254-.382.242.019.114.231.023.235.151.231-.261.6-.39.681-.795.155.129.1-.008.307-.008.117.492.583.163.931.061-.159.367.594.386.617-.011.216.117.008.458-.148.473.053.079.182.079.159.231.254-.129-.015-.291.144-.473.079-.011.163.333.235.076.136.068.132.284.314.307.11-.288.432.026.693-.17-.064-.341.159-.409.379-.477a.214.214,0,0,0,.159.231c-.015.185-.337.053-.386.008-.019.473.768-.079.473.382.216-.019.087-.375.379-.322.061.1.363.6.011.625-.015-.068.03-.076.076-.079-.083-.057-.564,0-.625-.3-.216.019-.091.375-.382.322,0-.132,0-.261-.008-.39a.393.393,0,0,0-.227.238c.072.136.288.125.314.307-.023.182-.072.341-.223.4.178.061.538.662.322.621.034.151.3.057.238.31.1-.03.117-.14.227-.163-.114-.121-.314-.148-.242-.466.091.011.136-.019.151-.083.125.076.182.2.083.31a.376.376,0,0,1,.231-.083c.015-.132-.136-.2,0-.235-.121-.25-.591-.125-.477-.617.25-.132.3.011.617-.011-.015.39.344.382.628.458-.049-.466.647.079.856.3-.2.17-.2-.174-.462.008.083-.25-.125-.189-.163-.31-.337.276.39.371.091.625.185-.053.394-.167.39.148.242.03.212-.2.3-.318.276-.042.416.515.545.148.1.132.265.2.238.466-.1-.026-.125-.136-.235-.151-.008.14.1.163.083.31a.436.436,0,0,1,.307-.083c-.114-.235-.072-.45.223-.473.049.254-.015.394-.144.473.2.288.155-.3.462-.167-.008.193-.008.379.163.386.064-.015.076-.079.151-.079-.057-.038-.363-.049-.159-.31-.379-.178-.28-.386-.556-.693-.174.079.14.39-.223.4-.015-.386.068-.386-.015-.7.061-.068.212-.049.231-.163.208-.061.159.151.31.151.2-.106.242-.167.148-.394.227-.015.242.314.163.386a.376.376,0,0,1,.231-.083c.042-.284-.242-.227-.242-.466a.344.344,0,0,0,.307-.163c-.091-.227-.22.132-.307.163a1.766,1.766,0,0,1-.17-.78c.136.076.416.129.238.31.114-.1.344-.432.462-.087.216-.079-.117-.208.072-.314.2,0,.087.333.39.227-.079.238.132.242-.064.549.057.193.2-.148.386-.087.068.189.341.662.469.3.17.008.17.193.163.386-.322-.246-.538-.163-.859-.454.064.242.473.4.322.621.273-.144.189.049.466.068-.276.136,0,.284.238.307l.011.625c.155-.083.254-.416.31-.008.238-.049.284-.288.379-.477-.061-.068-.526.023-.549-.3.3.1.488.2.693-.091-.246-.023-.314-.151.072-.235-.064.356.56.246.7.144.008-.2-.125-.238-.163-.39-.2.023.11.132.008.314-.144-.03-.352-.447-.31.008-.2.026-.2-.159-.238-.31.151-.132.1,0,.31-.008a.214.214,0,0,0-.159-.231c.2-.129.208.269.621.064-.231.28.326.064.621.064-.238.284-.114.288-.144.553-.318.042.072-.212-.235-.231-.227.125.291.341.011.549.129-.125.348.087.462-.167.3.2.057.469.17.859.136-.023.174-.136.148-.318.269.269.117-.015.386-.087.008.121-.03.3.083.31.269-.185-.3-.4-.011-.625-.057-.235-.163.079-.31.008.049-.375.212-.405.136-.943.238-.235.719-.591.447-.871.212.091.2.3.466.148-.019.163-.2.159-.3.242.193.1.379.019.7-.015.114.257.049.329.39.227-.045.189-.333.136-.223.473.091-.015.064-.144.072-.235.322.167.564-.083.924-.095-.011.091.019.136.079.155-.148.087-.386.008-.693.091.08.155.344.117.318.386-.155.03-.242-.011-.235-.151-.223,0-.174.447-.068.549.1-.11.333-.083.541-.087.034.189-.136.174-.068.394.322-.148.931-.015.84-.564-.129.132-.344.178-.458.322-.1-.159-.337-.182-.469-.3.011-.269.223-.344.458-.4,0,.079,0,.155,0,.235a2.155,2.155,0,0,0,.613-.326A.726.726,0,0,1,56.16,7a.207.207,0,0,0,.227-.159c.091-.254-.25-.057-.159-.31a.653.653,0,0,1,.462-.087c.061-.223-.114-.2-.083-.39.151,0,.095-.216.307-.163-.019.288.216.307.394.382-.106.235.068.265-.068.473-.026.189.352-.049.235.231.155,0,.095-.216.307-.163-.008.17.481.348.238.386.322.114.6-.235,1.007.057.265,0,.11-.405.379-.4-.03.3.17.352.318.462-.034-.159.17-.28.3-.477.212.114-.117.341-.148.473a1.258,1.258,0,0,0,.314.227c.182,0-.034-.212-.155-.151a.307.307,0,0,1,.462-.087c.015-.231-.182-.238-.163-.466.36.182.432.662.791.844.216-.106-.246-.159-.163-.39a.7.7,0,0,0,.3-.318,6.685,6.685,0,0,1-.784-.534c-.091.015-.064.144-.072.238-.049-.11-.3-.008-.31-.151-.015-.22.185-.231.382-.242-.189-.242-.511-.685-.015-.859-.235.564.458.322.621.064-.125.208.125.469-.064.7.405-.189.019.1.238.31-.027-.261.329-.8.057-.943.011-.064.076-.079.072-.159.068.011.072-.03.076-.079.121.31.17.14.466.068-.008.14.1.163.083.31-.318-.148-.42.53-.064.628-.03.151-.023.337-.227.318.178.061.284.03.318.386-.246.072-.163-.2-.314-.227-.106.015.049.42.238.386a.373.373,0,0,0-.072.238c-.185.034-.17-.14-.386-.072,0-.106,0-.208-.008-.314a.207.207,0,0,0-.227.159c.193.132.129.14-.072.238.008.231.3.167.242.466-.242.042-.3-.106-.466-.148-.182.026-.14.276-.382.242-.026.189.352-.049.235.231a2.718,2.718,0,0,0,1.151-.413c0-.212-.132-.155-.008-.314.079.049.083.178.235.151.034-.246-.242-.174-.163-.466a.867.867,0,0,0,.6-.95c.189-.057.333.329.163.39.072.231.114-.185.307-.083-.11.242.03.3-.068.469.25-.265.189.208.466.148.053-.242-.269-.091-.163-.386a1.177,1.177,0,0,1,.617-.011c-.3-.276-.806-.322-.943-.765.212-.011.159.129.31-.008.061-.223-.114-.2-.083-.39-.026-.163-.344-.011-.314-.227-.1.1-.148.238-.307.083.068-.14.28-.136.3-.318.136.015.178.132.159.31.31.045.386-.371.617-.17.038.167-.106.151-.227.159a.446.446,0,0,0,.469.227c-.155.167-.333.6-.609.405a1.9,1.9,0,0,0,.863.53c-.11.125-.31.159-.223.473.42.049.3-.428.768-.329.1-.242-.3-.526.068-.549-.083.25,0,.178.008.469.1,0,.2,0,.31-.008-.144.2.242.428-.064.628a2.935,2.935,0,0,0,.458-.246c.034-.151-.246-.333.072-.314-.057-.235-.163.079-.31.008-.227-.1.337-.072.307-.242.132.288.36.008.617-.011.148.148-.042.144.008.39a4.923,4.923,0,0,0,.765-.564c.038-.276-.276-.185-.242-.466a1.274,1.274,0,0,0,.307-.242c.2.053.549.356.462-.167.31-.019.208.2.163.39-.1,0-.208,0-.31.008.027.106.2.061.31.072-.231.121-.356.394-.617.167.231.322.356.662.708.689a.4.4,0,0,0-.318-.462c.469-.095.492-.647.753-1.109.182.151.14.545.322.7.061.212-.363-.049-.307.163a1.487,1.487,0,0,0,.852.061c.061-.25-.072-.3-.163-.386-.106.026-.061.2-.072.314-.432.064.042-.329-.314-.307.356-.148.776-.14,1-.568.223.382.344-.144.617-.17-.1.155-.064.45-.144.628.276.117.042-.265.227-.238.189.042.151.379.4.541a1.935,1.935,0,0,1,.916-.568c-.382.454.25.246.246.78.185-.076-.057-.568.3-.477.076-.3-.291-.117-.238-.386.367.015.458.318.553.617.322.057.14-.379.458-.322-.148.167-.049.522.015.7-.1.095-.121.034-.231,0,0,.318.477,0,.238.386.39-.026.545-.288.84-.409-.208-.326-.125-.458.216-.787.136.068.3.17.159.31.416.095.337-.144.7.064-.182.216-.424.034-.613.326.435-.011.25.284.087.545.034.121.246.061.159.31.091.265.3-.03.39.148.079.273-.416.03-.541.011-.064.015-.076.079-.151.079.151.269.333.5.481.772C74.841,7.608,74.947,8.039,75.36,8.039Zm4.312-.791c.011-.091.136-.182,0-.235-.076.1-.068.291-.148.394.254.087.469-.25.617-.011a.5.5,0,0,0-.227.163c.435.261.216-.515.693-.17a.406.406,0,0,1,.072-.238c-.129-.227-.4.132-.466-.068.326-.341.712-.121.685-.56a.3.3,0,0,0,.541-.087c-.091-.011-.22.019-.235-.072.208-.011.367-.185.227-.318A11.6,11.6,0,0,1,79.671,7.248Zm17.7-.659c.011-.091-.019-.223.072-.235.049.106.3.008.31.151.087.246-.038.4.242.545.015-.061.064-.091.151-.079.008-.329-.382-.235-.322-.621.189-.106.326.223.386-.008-.2-.284-.92-.314-1.083.023-.015-.117.023-.291-.083-.31-.03.132-.1-.015-.231,0C96.884,6.351,97.133,6.461,97.368,6.59Zm8.884-.413c.136.015.386-.087.31.151-.072-.045-.288-.178-.231.083.027.095.488-.03.538-.167C106.673,6.1,106.249,5.965,106.253,6.177ZM71.339,8.195c.148.008.057.257.235.231.193-.17-.238-.344-.011-.549C71.362,7.858,71.37,8.047,71.339,8.195ZM69.526,6.351c.276-.148.227.008.466.068-.072-.25.254-.114.227-.318-.31-.072-.4-.375-.628-.534C69.537,5.9,69.681,5.957,69.526,6.351Zm2.707.106c.2.019.333-.034.3-.242-.371.121-.079-.447-.394-.382C72.043,6.185,72.452,6.215,72.233,6.457ZM68.061,6.7a.724.724,0,0,0,.458-.322c-.246.072-.242-.117-.39-.148C67.951,6.385,68.243,6.529,68.061,6.7Zm31.3-.931c.148.015.17-.091.307-.083,0,.079-.061.095-.076.159.076,0,.155,0,.231,0C99.9,5.526,99.359,5.53,99.363,5.764ZM69,7.3c-.144.076-.261-.231-.31.008.2.132-.155.352-.223.473.382.064.288-.333.613-.326.193.3-.008.7.556.772-.148-1-.9-1.071-.655-1.866a.37.37,0,0,1-.235-.076A.957.957,0,0,0,69,7.3Zm.53-.4c.106-.049.008-.3.148-.314,0,.045.015.091.079.076.049-.212-.163-.148-.238-.231A.5.5,0,0,0,69.534,6.9Zm-2.782-.1c.193.008.375.008.382-.163C66.975,6.472,66.8,6.639,66.751,6.8Zm20.794-.329c.1.564.394.348.477.7.083-.2.413-.163.693-.17a.4.4,0,0,1-.072.238c.148.015.17-.091.307-.083.015-.148-.091-.17-.083-.31a.51.51,0,0,1-.39-.072c-.015.061,0,.155-.072.159-.337-.151-.447-.541-.787-.689C87.571,6.4,87.84,6.476,87.545,6.468ZM98.439,6.1c-.049.318.167.36.242.545.042-.216.318-.2.3-.477C98.644,6.207,98.723,5.931,98.439,6.1Zm-3.471.458c.151.023.151-.11.231-.159-.053.284-.223.5-.22.632-.1,0-.072-.136-.155-.155a.611.611,0,0,0,.087.549c-.072-.42.594-.17.31.072.246-.155.443-.235.223-.473.182-.079.488-.034.458-.322-.337.424-.575-.606-.859-.454C95.222,6.26,94.957,6.453,94.968,6.555Zm1.018.685c.064-.265.174-.011.307-.163-.038-.273-.17-.329-.39-.227C95.865,7.051,95.8,7.127,95.986,7.241Zm3.933-.7c.064-.167.231-.235.223-.473-.242.155-.284.341-.534.326C99.814,6.325,99.764,6.54,99.92,6.537ZM81.367,6.9c.25.026.435-.341.148-.394C81.632,6.8,81.3,6.661,81.367,6.9Zm27.445-.382c.25-.1.526-.447.144-.553C108.94,6.2,108.838,6.173,108.812,6.521Zm-23.345.534c.163-.163-.314-.356.151-.238A.29.29,0,0,0,85.3,6.51C85.3,6.76,85.308,6.983,85.467,7.055ZM90.1,6.73c.178-.03.363-.057.3-.318-.159-.042-.579.034-.307.163C90.225,6.389,90.093,6.6,90.1,6.73Zm14.608-.288c.208-.129-.2-.462-.314-.227C104.545,6.245,104.462,6.518,104.708,6.442Zm3.4-.223c.144.4-.2.318-.223.553.148.015.17-.091.307-.083,0,.079,0,.155,0,.235-.129,0-.257,0-.386.008,0,.079,0,.159,0,.235.375-.151.095.068.235.231a.344.344,0,0,0,.307-.163c-.091-.011-.22.019-.235-.072.189-.182.795-.083.689-.405-.053.2-.238-.254-.386.008-.038-.148-.17-.193-.163-.39.076,0,.091-.064.151-.083.019.083.132.185.155.076-.095-.015-.049-.087,0-.155-.136-.053-.242-.083-.31.008C108.486,6.3,108.138,6.309,108.108,6.219ZM65.987,7.362a.51.51,0,0,0,.39.072c.057-.053.193-.469-.087-.39C66.312,7.438,66.028,7.063,65.987,7.362Zm4.406-.087c-.064.117-.11.25-.3.242a.5.5,0,0,0,.068-.394c-.3.17-.341-.322-.466-.068.231.064-.178.121-.072.314.28.045.242.231.083.39.189-.106.246.307.31.072-.269-.167.276-.182.382-.242C70.291,7.411,70.594,7.29,70.393,7.275Zm20.869-.409c.208.049.148-.167.227-.238-.049-.023-.3-.189-.31.008C91.27,6.643,91.27,6.752,91.262,6.866Zm-9.426.42c-.235-.011.242-.519-.163-.466C81.67,6.991,81.651,7.578,81.836,7.286ZM89.8,7.127c.038-.182.519-.261.148-.394C89.884,6.809,89.544,6.995,89.8,7.127Zm13.067-.178c.212.034.519-.379.386-.008.208.049.148-.163.227-.238-.144-.061-.314-.095-.39-.227.064.4-.3-.163-.307.083C102.978,6.563,102.967,6.847,102.865,6.949Zm-40.273.715c.428-.091.257-.352-.008-.314C62.587,7.453,62.587,7.559,62.591,7.665Zm36.48-.8a.078.078,0,0,0,0,.155c.038-.117.11-.2.148-.318-.106-.023-.151-.11-.31-.072C98.894,6.79,99.022,6.79,99.072,6.866Zm-17.693.583c-.344.095-.432-.5-.625-.3C80.935,7.226,81.113,7.721,81.378,7.449Zm-15.229.223c.2.17.473-.049.538-.246C66.445,7.615,66.259,7.453,66.149,7.672ZM71.4,7.566c.091.011.22-.019.235.072-.049.008-.091.015-.076.079.079,0,.155,0,.231,0,0-.079,0-.155,0-.235-.091-.011-.22.019-.235-.076.042,0,.087-.064,0-.079C71.536,7.441,71.43,7.464,71.4,7.566ZM96.99,7.142c.193-.045.466-.008.458-.242-.22.068-.2-.106-.39-.072C97.039,6.934,96.956,6.979,96.99,7.142Zm3.017.019A.212.212,0,0,1,100.234,7c.027.185.273.14.238.386-.148.034-.057.307-.307.242.163.182-.151.367.163.386-.008-.22.288-.583.447-.871-.405-.17-.291-.132-.7-.3.042,0,.087-.064,0-.079C99.92,6.885,99.757,7.017,100.007,7.161ZM66.46,7.82c-.015.136.155.462.235.231-.322-.148.424-.291.068-.469C66.7,7.7,66.71,7.884,66.46,7.82Zm6.727-.053a.724.724,0,0,0,.458-.322c-.193.011-.235.151-.386.008C73.236,7.559,73.153,7.6,73.187,7.767Zm2.32.034c.4.079.386-.238.534-.4-.136.049-.454-.087-.462.087C75.818,7.559,75.549,7.752,75.507,7.8ZM94.06,7.513c.151-.155.163-.394.068-.469C94.113,7.165,93.836,7.415,94.06,7.513Zm-26.434.519c.023-.367-.269-.31-.39-.148.061.231.034.553.246.621-.045-.2-.136-.3.148-.318.151.03.068.3.314.227-.026-.231-.114-.288-.008-.394.049.11.3.008.314.151q-.119.119-.227.238c.185.182.3-.1.462-.167-.254-.079-.322-.356-.553-.458.121,0,.049-.231,0-.079C67.838,7.831,67.868,8.066,67.626,8.032ZM83.161,7.8c-.227-.061.042-.254-.008-.39a.494.494,0,0,1-.39-.072c-.106.3.348.008.238.31-.36.148-.488-.117-.7.015.416.079-.1.488.087.545.015-.095.083-.049.155,0C82.344,7.642,83.093,7.888,83.161,7.8Zm4.872-.095a.292.292,0,0,0,.3-.318c-.155,0-.1-.212-.314-.151C88.09,7.513,88.245,7.494,88.033,7.71Zm2.241-.121c-.015-.193.117-.242.148-.394-.1,0-.2,0-.31.008C90.1,7.4,90.1,7.581,90.274,7.589Zm13.446-.42c.019.148-.083.174-.072.314.254-.019.655-.413.3-.553.087.507-.291-.034-.307.163C103.686,7.093,103.732,7.1,103.72,7.169Zm.617-.011c.1,0,.072.136.159.151-.042-.246.352-.064.382-.242-.121,0-.064-.2-.235-.151C104.773,7.222,104.311,6.949,104.337,7.157Zm-1.226.572c.394-.148.314.2.545.223a1.44,1.44,0,0,0-.871-.924C102.778,7.483,103.236,7.294,103.111,7.729Zm3.774-.7c0,.106,0,.208.008.314.382-.068.538-.14.625.223,0-.155.208-.1.148-.318-.348-.008-.356-.223-.083-.31C107.1,6.843,107.157,7.532,106.885,7.029Zm2.173.269c.307-.14.193.11.318.466.053,0,.1,0,.155,0,0-.079.061-.095.076-.159-.432-.079.265-.136.227-.318-.273,0,.159-.261-.083-.235-.106.049,0,.3-.148.314-.061-.159-.25-.307-.087-.469-.117.015-.284-.023-.307.083.208.246-.1.061-.155-.076C109.061,7.1,109.2,7.146,109.058,7.3ZM65.847,8.07a.728.728,0,0,0-.617.011c.242-.095.189.121.31.151.019-.11.167-.091.227-.163.125.238.594.466.7.064-.185-.049-.553-.318-.625-.223A.081.081,0,0,1,65.847,8.07Zm2.548-.208c-.053.242.216.148.163.39.193.1.318-.235.386-.008-.008.148-.254.061-.227.238.148.015.17-.091.307-.083.023-.314-.011-.572-.242-.621C68.667,7.96,68.591,7.9,68.394,7.861Zm8.968-.1c-.148-.03-.2-.167-.39-.148C76.885,7.85,77.305,7.945,77.362,7.763Zm1.779.045c.064-.254-.254-.106-.314-.227.114.314-.163.25-.144.473C78.956,8.089,78.869,7.771,79.141,7.808Zm22.648-.367c0,.216.132.155.008.314a.552.552,0,0,0,.458-.322c-.322,0-.015-.053,0-.155-.1-.106-.367-.042-.466-.148C101.778,7.4,102.259,7.559,101.79,7.441Zm3.57.556c.193.008.375.008.382-.163-.148-.159-.405-.083-.469-.148.03-.151.3-.068.227-.318-.371.2-.261-.515-.469-.227.2.14.008.144-.155.079-.095.31.257.155.163.466a.376.376,0,0,0-.231.083c-.148-.136.1-.246-.159-.31-.03.28-.117.454.015.7a1.909,1.909,0,0,0,.613-.246c-.061-.008-.238-.254-.083-.235C105.2,7.843,105.412,7.782,105.359,8Zm-31.4-.091c.4-.008-.038.507.473.462-.015-.25-.182-.341-.167-.625C74.091,7.729,73.978,7.771,73.963,7.907Zm26.828-.212a.463.463,0,0,0,.538-.246c-.291.117-.151-.212-.39-.148C101.074,7.57,100.972,7.574,100.79,7.695ZM97.7,7.6c.3.148.008.458.4.541-.087-.39.341-.28.375-.556-.193.106-.25-.307-.31-.072C98.36,7.6,97.788,7.778,97.7,7.6Zm1.552.284c.2.019.2-.167.227-.318a.37.37,0,0,1-.235-.076C99.2,7.74,99.39,7.729,99.25,7.884Zm-10.592.2c.254.015.371-.1.382-.322-.129,0-.257,0-.386.008C88.654,7.88,88.658,7.986,88.658,8.089Zm-4.013.394c0-.1.136-.076.151-.159-.356-.068-.008-.382-.394-.382A.717.717,0,0,0,84.645,8.482Zm6.413-.36c.174-.182-.117-.284-.318-.307A.369.369,0,0,0,91.058,8.123ZM106.9,7.967c-.079-.193-.394-.678-.545-.3C106.654,7.684,106.658,7.771,106.9,7.967Zm-21.486.42c-.019-.148.083-.174.072-.314A.429.429,0,0,1,85.179,8C85.19,8.2,85.323,8.274,85.417,8.388Zm16.849-.329c-.182-.083-.208.023-.39-.148,0,.1,0,.208.008.314.3.019.227.25.549.379a1.163,1.163,0,0,1,.061-.784c-.049-.045-.371-.178-.386.008A.211.211,0,0,1,102.267,8.058Zm7.65-.307c-.011.3.488.288.462-.008C110.114,7.808,110.049,7.6,109.917,7.752Zm-31.768.7c.019.261.485.291.462-.008C78.346,8.626,78.354,8.285,78.149,8.452Zm17.012.057a.377.377,0,0,0-.242-.466C94.923,8.285,95,8.441,95.161,8.509Zm3.789-.072c.08-.076.064-.405-.163-.39C98.64,8.195,98.86,8.312,98.95,8.437Zm-.768.25c.121-.125-.045-.36-.238-.386C97.909,8.547,98.046,8.619,98.182,8.687ZM42.839,6.014c-.22.227.284.3-.068.473.14.144.2-.068.462-.008C43.229,6.192,42.914,6.234,42.839,6.014ZM44.485,7c.151-.026.155.1.235.151,0-.193.14-.246-.008-.39Q44.457,6.747,44.485,7Zm1.249.6c-.22.114-.4-.2-.462.008.2.14.008.144-.155.083.038.2.246.22.394.307C45.644,7.926,45.644,7.721,45.735,7.6ZM36.4,8.645c-.291.121-.023-.348-.314-.227C36.025,8.7,36.316,8.971,36.4,8.645ZM40.371,6.3c.095.008.182.019.159.155.148.015.17-.091.307-.083.057-.3-.17-.3-.318-.386C40.579,6.2,40.371,6.143,40.371,6.3Zm-.541.011c0,.1-.1.11-.072.235.091.011.22-.019.235.072-.045,0-.091.015-.076.079.11-.045.4.083.386-.087-.227-.076-.337-.151-.238-.386-.28.026-.375-.136-.621-.144C39.477,6.355,39.61,6.412,39.829,6.309Zm1.707.28c-.242-.049-.106-.208-.087-.39-.276.148-.227-.011-.466-.068-.091.39.2.382.17.7.356-.091.882.178.681-.719-.132.034-.2-.114-.235,0C41.836,6.306,41.5,6.529,41.536,6.59Zm-2.086.117c-.424.1.3.579-.22.632.242-.042.208.265.386.072a1.131,1.131,0,0,1-.011-.625c-.132-.11-.189-.507-.394-.307C39.1,6.756,39.477,6.521,39.451,6.707Zm8.816.064c.038-.227.121.117.235.072a.214.214,0,0,1,.148-.238.356.356,0,0,0-.159-.31c.053.462-.344.038-.382.242C48.237,6.537,48.157,6.752,48.267,6.771Zm4.868-.254c0,.1-.132.076-.151.159.379.038.375.064.545.223-.114-.087-.189-.079-.231.083a.747.747,0,0,1,.318.386c.3-.117.379-.45.606-.64-.25-.182-.609-.545-.856-.3.208.026.564.307.4.462a1.2,1.2,0,0,0-.708-.454C53.1,6.446,53.146,6.449,53.135,6.518Zm-12.67.564c.257-.087.125.242.163.386a1.219,1.219,0,0,1,.776.064c-.36.242.178.575.174.935-.1.079-.288.079-.307.242.291.026.348-.17.458-.322a1.516,1.516,0,0,1-.174-.935.339.339,0,0,1-.314-.151.393.393,0,0,0,.227-.238c-.193-.132-.462-.178-.541-.068.14.144.238-.11.314.151-.22-.061-.2.114-.386.087-.061-.231-.428-.712-.549-.382C40.571,6.775,40.571,6.964,40.465,7.082Zm-7.268.14c-.061.019-.151,0-.151.079.273-.015.337-.155.466.068.015-.061.061-.091.151-.079.008-.7-.382.129-.238-.386C33.22,6.885,33.171,7.017,33.2,7.222ZM47.423,7.1c.185.068.208.314.318.462.072-.106.2-.159.3-.242-.091-.223-.106-.526-.4-.541C47.574,6.889,47.446,6.938,47.423,7.1Zm-5.716.344c.242.03.344-.076.3-.318A.3.3,0,0,0,41.707,7.445Zm-8.654.25c.288.053-.03.235.163.386.405-.178.507.2.772-.015a2.686,2.686,0,0,1-.394-.382c.11-.023.129-.132.231-.163a.209.209,0,0,0,.235.151c-.03-.208-.208-.261-.394-.307-.114.095-.114.3-.223.4-.132-.151,0-.1-.008-.314-.132.034-.2-.114-.231,0C33.485,7.684,33.053,7.649,33.053,7.695Zm7.272.091c-.057-.291.2-.466-.163-.466C40.166,7.528,40.124,7.782,40.325,7.786Zm3.013.019c-.326-.231-.212-.337-.008-.469-.216.068-.2-.106-.39-.072C42.8,7.483,43.126,8,43.338,7.8ZM42.1,7.752c-.057.367.515.129.7.064-.2-.023-.079-.4-.242-.466C42.282,7.608,42.657,7.952,42.1,7.752ZM56.1,7.634c0-.053,0-.106,0-.155.106.023.151.106.31.072a.471.471,0,0,0-.473-.462C56.129,7.267,56,7.487,56.1,7.634Zm.848-.174c.076,0,.155,0,.231,0,.148-.148-.072-.265-.163-.39A.5.5,0,0,1,56.943,7.46Zm.4.541c.318-.106.265-.742.061-.784A2.817,2.817,0,0,0,57.341,8ZM36.309,8.02c.242.034.314-.1.382-.242a.424.424,0,0,1-.31-.072C36.354,7.812,36.271,7.861,36.309,8.02Zm17.549-.106c.462.026.337-.556.068-.549C53.994,7.634,53.816,7.665,53.858,7.914Zm6.488-.288c.061.015.091.064.079.155.114-.045.4.083.386-.087a.383.383,0,0,1-.235-.231c.042,0,.087-.064,0-.079C60.57,7.536,60.32,7.449,60.346,7.627ZM48.6,8.092a.376.376,0,0,0,.231-.083c-.011.17.068.246.235.231.072-.341-.178-.344-.318-.466C48.755,7.933,48.543,7.884,48.6,8.092Zm2.483.344c-.269.087-.1-.291.072-.235a.52.52,0,0,0-.083-.39c-.148-.015-.17.091-.307.083C50.993,8.081,50.777,8.834,51.087,8.437Zm-4.72-.064c.1,0,.208,0,.31-.008-.011-.231-.182-.288-.318-.386C46.363,8.111,46.363,8.244,46.367,8.373Zm9.585-.11a.431.431,0,0,0,.307-.083c.257.189.03.443.163.545.117-.288.121.178.31.072a1.534,1.534,0,0,1-.091-.625c-.42.083-.076-.314-.238-.386C56.235,8.066,56.114,7.945,55.951,8.263ZM53.4,8.312c-.11,0-.3.023-.151.083.238.053.144-.216.382-.163,0,.042.064.087.076,0-.163-.042-.167-.117-.083-.235-.14.148-.545-.061-.386.087A.209.209,0,0,1,53.4,8.312Zm-5.561.344c-.061.019-.151,0-.155.079.208-.061.159.151.31.151-.068-.25-.068-.159.072-.314-.36,0,.087-.182.072-.314-.076,0-.155,0-.231,0C47.953,8.509,47.65,8.475,47.843,8.656ZM49,8.479c-.155,0-.1-.212-.314-.151.011.454-.314-.216-.386.083C48.43,8.5,48.839,8.694,49,8.479Zm9.433-.03c.2.019.2-.167.227-.318-.114.045-.4-.083-.386.083C58.412,8.206,58.454,8.293,58.431,8.448Z" transform="translate(-15.543 -0.57)" fill="#ffab00" fill-rule="evenodd"/>
      <path id="Path_1160" data-name="Path 1160" d="M98.854,7.412c-.132-.027-.144.064-.151.159a.434.434,0,0,0-.31-.072c-.034-.189.14-.174.068-.394C98.714,7.082,98.836,7.192,98.854,7.412Z" transform="translate(-56.943 -2.021)" fill="#ffab00" fill-rule="evenodd"/>
      <path id="Path_1161" data-name="Path 1161" d="M85.539,9.248c-.132.121.083.337-.148.473-.132-.049-.053-.178.076-.159-.026-.106-.2-.061-.31-.072-.03-.409.246-.424.458-.242C85.6,9.335,85.539,9.289,85.539,9.248Z" transform="translate(-48.718 -3.285)" fill="#ffab00" fill-rule="evenodd"/>
      <path id="Path_1162" data-name="Path 1162" d="M40.552,5.93c-.136.114-.17.223-.072.314-.057-.034-.428.087-.545-.148-.193.254-.117.307-.22.553-.405-.307.03-.946.447-.946a.439.439,0,0,0-.072.314l.454-.477C40.843,5.619,40.252,5.847,40.552,5.93Z" transform="translate(-20.38 -1.05)" fill="#ffab00" fill-rule="evenodd"/>
      <path id="Path_1163" data-name="Path 1163" d="M7.28,6.8c.1-.231.386.03.379-.4.185-.038.17.14.39.072-.333.223.132.246.242.621-.371-.008.17.273-.068.394" transform="translate(-0.323 -1.582)" fill="#ffab00" fill-rule="evenodd"/>
      <path id="Path_1164" data-name="Path 1164" d="M64.224,5.91c-.008.314,0,.322.238.231,0,.11-.008.223.079.235-.163.216-.462-.091-.469-.3a2.625,2.625,0,0,0-.307.163C63.551,6.069,64.08,5.982,64.224,5.91Z" transform="translate(-35.395 -1.28)" fill="#ffab00" fill-rule="evenodd"/>
      <path id="Path_1165" data-name="Path 1165" d="M70.331,6.22c-.011.14.132.257.318.386-.1.151-.466-.091-.469-.3C70.267,6.311,70.316,6.281,70.331,6.22Z" transform="translate(-39.413 -1.473)" fill="#ffab00" fill-rule="evenodd"/>
      <path id="Path_1166" data-name="Path 1166" d="M100.955,6.58c.053.235.45.416.087.625.121.257.185-.167.386-.087a.839.839,0,0,1-.379.4c-.114-.231-.193,0-.39-.148.178-.341.1-.341.216-.867.14.008.163-.1.307-.083-.03.3.6-.053.628.538C101.444,6.917,101.258,6.686,100.955,6.58Z" transform="translate(-58.355 -1.595)" fill="#ffab00" fill-rule="evenodd"/>
      <path id="Path_1167" data-name="Path 1167" d="M117.331,6.274c-.1.026-.061.2-.072.314-.284.061-.344-.117-.318-.386.091.011.136-.019.155-.079.416-.042.329.212.7.064a1.6,1.6,0,0,1,.25.856c-.352.079-.276-.3-.545-.3-.114.1-.068.344-.382.242.265-.2.136-.36.53-.481C117.573,6.387,117.524,6.255,117.331,6.274Z" transform="translate(-68.469 -1.409)" fill="#ffab00" fill-rule="evenodd"/>
      <path id="Path_1168" data-name="Path 1168" d="M245.658,4.676a.214.214,0,0,0,.159.231c.223-.072.083-.117.072-.314.208-.061.159.151.314.151.231-.1-.049-.31-.163-.31.1-.2.344.11.545.068,0,.106,0,.208.008.314-.2-.17-.356.163-.617.17.1.091.186.507-.148.394a.218.218,0,0,1,.008.314c.057.235.163-.079.31-.008,0,.155-.208.1-.148.318-.409-.367-.632-.95-1.181-1.151,0-.1,0-.208-.008-.314a1.759,1.759,0,0,0,.844-.329.214.214,0,0,0,.159.231C245.745,4.5,245.768,4.653,245.658,4.676Zm0-.155c-.129,0-.257,0-.386.008.019.148-.083.174-.072.314A.5.5,0,0,0,245.658,4.52Zm-.14.784c.314-.03.216-.352-.008-.394C245.514,5.043,245.514,5.175,245.518,5.3Z" transform="translate(-147.937 -0.224)" fill="#ffab00" fill-rule="evenodd"/>
      <path id="Path_1169" data-name="Path 1169" d="M254.736,4.5c-.216.371-.03.545.17.856-.132.31-.265-.454-.39-.148-.151,0,.129-.31-.163-.31-.223.3-.39.061-.772.015-.034-.238.25-.167.382-.242-.106-.31-.159.026-.386.008.049-.242.053-.151-.008-.39.235,0,.511.034.458-.242C254.524,4.2,254.168,4.394,254.736,4.5Zm-.613.17c.2.019.254-.114.227-.318C253.975,4.394,253.956,4.432,254.123,4.675Z" transform="translate(-153.381 -0.124)" fill="#ffab00" fill-rule="evenodd"/>
      <path id="Path_1170" data-name="Path 1170" d="M244.358,6.261c.027-.1.133-.125.148-.238.212.068-.144.291.163.31-.1-.382.7-.4,1.071-.568a1.376,1.376,0,0,0-.314-.231A.716.716,0,0,1,246.5,5.2c.068-.291.473-.254.689-.405.03.091.14.2.155.076.117.064.117.25.163.386a.348.348,0,0,0-.235-.072c-.106.026-.061.2-.072.314.238.053.28-.087.462-.087.11.1.011.413.314.307-.185.386-.488-.22-.538.246-.106-.023-.068-.193-.083-.31-.1,0-.2,0-.31.008.038.148.17.193.163.39-.405.079-.416-.257-.7-.3.352.746.015.057-.462.008,0,.076.095.057.155.076,0,.076-.095.064-.151.079.057.231.265.227.008.394.25.14.2.106.242.466.318-.114-.03-.405.14-.628.348.28.893-.1,1.234-.182-.125.159-.2.367-.458.4.042.114.117.193.159.31.159-.174.223.034.466-.008-.038.117-.11.2-.148.318.185.178.288-.379.534-.4-.257-.193-.053-.409-.246-.7.447.026.3-.526.765-.485q.006.312.011.625c-.163.038-.148-.11-.159-.231-.344.011-.095.182-.227.318.133.072.174.242.239.386.492-.011-.019-.526.609-.4-.034-.227-.269-.25-.394-.382.045-.049.174-.375-.008-.394a3.487,3.487,0,0,0,1.075-.413c-.223-.212-.477.2-.768.17a.393.393,0,0,1,.227-.238c-.019-.114-.231-.023-.235-.151-.114.2-.182.439-.534.4a1.689,1.689,0,0,1-.163-.466c.28-.038.488-.136.534-.4.22-.068.2.106.39.072-.042.163-.117.17-.231.083.125.057-.011.382.238.307.011-.276.2-.17.534-.4.068.269-.079.333-.144.473a.316.316,0,0,1,.231-.095,3.385,3.385,0,0,1,.3-.477c.14.068-.193.318-.144.549.363.019.155.185-.068.394.015.064.079.076.079.155.288-.485.443-.276.685-.56.3.064.064.314.087.545.1-.03.117-.14.231-.163-.034-.273-.193-.5.223-.473-.114-.2-.53-.6-.091-.7-.155.155-.076.416.238.31-.185.061.235.549-.144.553.015.064.079.076.079.155.019.114.231.023.235.151.1-.079.148-.216.307-.242.027-.189-.144-.167-.083-.39.307.424.4-.212.852.061-.185.284-.394.3-.534.481.572.14.992-.382,1.548.049-.14.011-.167-.091-.31-.072a.356.356,0,0,1,.079.235c.439-.136.341.129.693-.091-.061.182-.008.632-.216.867.045.132.36-.269.39.148-.148-.03-.632.178-.606.56q.256.017.227-.238c.072.042.121.216.155.076.227.061-.095.2.008.394a4.033,4.033,0,0,0,.534-.481c.148.14.2.375.394.462.216-.1.231-.39.375-.556a.212.212,0,0,0-.235-.151c.1-.242.345.14.462-.087-.432-.185-1.162-.053-1.173-.681.023-.083.719-.56.291-.787.1-.227.405-.011.39.148.159-.049.246-.17.382-.242.027-.189-.144-.167-.087-.39.167.189.344-.076.466.068-.053.148-.231.061-.072.235a1.928,1.928,0,0,0,.92-.329c.038.318-.326.246-.379.477a.81.81,0,0,1,.621.144c-.174.238-.428.4-.371.867-.174-.178-.307.026-.3.242.053.079.178.076.159.231-.042-.2.522-.435.541-.091.307-.095.14-.481.22-.632-.064-.17-.477.023-.394-.307.314.1.242-.174.462-.167-.182-.17.019-.307-.011-.549-.1-.106-.159-.019-.386.008-.011-.14.091-.167.072-.314.129.03.352.363.466.148.227.038-.114.125-.072.235.333,0,.284-.216.772-.015.151-.079.114-.348.379-.322-.114.223.034.322-.064.628.2-.079.443-.432.541-.011-.129.03-.148-.057-.159-.155-.193.015-.019.265.008.314.242.034.17-.246.458-.167-.053.242.216.148.163.39-.284-.178-.212.31-.144.549a.684.684,0,0,0,.3-.318c.061.053.254.326.231,0,.155,0,.1.212.314.151.045.17-.144.114-.151.238.125.117.591-.148.394.307.155-.026.148-.216.3-.242.136-.011.163.091.31.072a.693.693,0,0,1-.144.628c.344-.023.431-.3.689-.405-.2.231-.087.485.091.7a6.9,6.9,0,0,1,.14-.787c.511.136.462-.269.768-.329a.539.539,0,0,1-.068.394c.2-.064.435-.087.538-.246.242.36-.386.095-.22.553-.133.03-.148-.057-.159-.155-.061.015-.076.079-.151.083.057.163.45.322.466.068.106.023.068.193.083.31.291-.095.553-.379.7-.015.212-.125,0-.469-.087-.545-.144.284-.22.034-.462.008.072-.11.2-.159.3-.242-.117-.193-.515-.095-.473-.458a.5.5,0,0,1,.386-.087c0-.216-.132-.155-.008-.314-.337-.257-.772-.413-1.1-.685-.034-.189.136-.174.068-.394.11,0,.219.008.231-.083.125,0-.113.443.087.545.148-.329.53-.208.621.144-.178-.182-.284-.148-.307.163.163-.235.36-.042.613-.246-.045.193.064.613.163.39.254.25-.133.534-.22.708.117.17.159.42.318.541.045-.091.034-.2.227-.318-.045-.178-.121.1-.235-.072.159-.167.276-.14.534-.322,0-.076-.095-.061-.155-.076.238,0,.348-.178.613-.326-.057-.235-.163.079-.31.008-.034-.238.25-.167.382-.242,0-.155-.212-.095-.159-.31.235.076.133-.178.148-.314.239-.132.227.386.31.151.17.049-.14.265-.227.318.057.235.163-.079.31-.008.25.106-.314.042-.227.238.178.148.511-.11.7.144-.068.216-.273-.076-.386-.072-.015.136.136.2,0,.235.121.178.189.117.386.072-.11.227-.375.3-.454.556.186-.049.4-.076.379-.322.193.072-.1.3.011.549a3.761,3.761,0,0,1-.776-.14c.132.072.163.257.314.307-.3.061-.019.095-.382.167.106.212.39.231.7.22-.333.136-.261.25-.148.394-.042.049-.31.242-.072.314-.053.14-.14.015-.231,0-.011.223.026.4.163.466.273-.015-.17-.254.072-.235.257-.034.136.337.242.466-.405-.034-.644-.462-1.011-.3a.615.615,0,0,0-.628-.458c-.121.038-.061.246-.307.163-.117.068.023.117-.072.314-.22-.375-.216.132-.538.087a.606.606,0,0,1,.375-.632c-.416-.159-.625.893-1.075.333-.223.072.053.254.008.394-.193.011-.235.151-.386.008-.042-.246.235-.182.144-.473-.22-.061-.307-.265-.473-.382-.291.208.2.261.163.466-.155.159-.151-.03-.31-.072-.064.015-.076.079-.151.079a.389.389,0,0,0,.238.231c-.36.344-.159-.575-.549-.458.053.079.178.079.159.231-.238-.091-.837-.575-.481-.772-.061-.231-.447-.117-.473-.382-.257.008-.072.443-.223.553.238.053.144-.216.382-.163-.7.541.375.193.485,1.007-.208-.208-.276.057-.227.318a2.521,2.521,0,0,1-1.484-.678c.042-.14.034-.326.148-.394-.25-.14-.019-.3-.242-.466-.341.045.136.405-.3.318a4.273,4.273,0,0,1,.326.776c-.178-.019-.291.026-.307.163-.257-.322-.083-.708-.405-.856-.144.011-.049.261-.227.238.163.439.22.288.17.78-.159-.019-.155-.208-.314-.231-.008.14.1.163.083.31-.129-.269-.416.125-.394-.307-.095.2-.25.155-.462.087.072-.5.246-.852-.254-1.015-.068.034-.136.072-.151.159.2.231.2.394.17.78-.1-.087-.159-.064-.155.083-.148.034-.121-.356.072-.238-.027-.106-.2-.061-.31-.072.061.238.057.148.008.39a2.488,2.488,0,0,0-1.242-.132c.038-.344-.469-.4-.246-.7-.2-.238-.405.117-.227.318-.223-.136-.591-.125-.78-.3a.633.633,0,0,0-.064.628c-.159.038-.2-.049-.31-.072-.076.132.1.208.087.469a.436.436,0,0,1-.4-.617c-.239.076-.25.371-.3.632-.556.011-.136-.534-.78-.454-.072-.25.114-.246.227-.318a.212.212,0,0,0-.235-.151c-.064.337-.25.6-.061.784-.133-.026-.144.064-.151.159-.189.106-.326-.223-.386.008-.22-.061-.133-.507.072-.314a.391.391,0,0,0-.394-.307c-.227.072.182.114.083.31-.132-.026-.144.064-.151.159-.712.045-.117-.568-.553-.617-.038-.216.288-.079.307-.242a5.442,5.442,0,0,1-.7-.379c-.042.329.3.3.008.469.027.106.2.061.31.072.212.235.079.39.015.7-.182-.117-.435-.246-.382.163a.338.338,0,0,0-.231-.072.288.288,0,0,1,.3-.318.078.078,0,0,0-.155,0c-.114-.03.008-.068,0-.155-.3-.11-.144.216-.382.163-.053.242.269.091.163.39-.269-.011-.348-.22-.473-.382-.223.072.053.25.008.394-.254.083-.394-.405-.386.087a1.167,1.167,0,0,0-.78-.3c0-.2.144-.25-.083-.31-.076.049.057.5-.3.477.216-.36-.17-.352-.4-.462-.03-.288.2-.314.379-.4-.023-.163-.341-.015-.39-.148-.076.049.057.5-.3.477.026.106.2.061.31.072-.148.28-.1.155.008.469-.2-.064-.84,0-.848.174-.174-.136-.269-.356-.549-.382-.231.057.076.167.008.314a4.978,4.978,0,0,1-.469-.3c-.114.038.034.1,0,.235-.125,0-.492-.326-.462.008-.254-.019-.174-.492-.011-.549-.015-.064-.08-.076-.08-.155-.227-.034-.405.367-.223.473-.189.045-.159.011-.227.238-.208-.121-.344-.291-.617.011.011-.227.3-.394.144-.553-.22.117-.14.53-.534.481.019-.4.367-.678.291-.946-.246-.276-.579.106-.7-.454.348-.026-.148-.318-.087-.545.341.038.17-.333.068-.469a3.877,3.877,0,0,0,1.155-.257c.208.11-.28.182-.144.473-.148-.03-.144-.22-.39-.148-.36.481.023.519-.291.867.216-.185.473-.045.768-.25A.589.589,0,0,0,244.358,6.261Zm12.06-.159c.042.155-.424.185-.148.314-.042-.151.348-.257.386-.087-.1,0-.2,0-.31.008.106.193-.22.329.008.394a.343.343,0,0,1,.307-.163c-.019.155.106.155.159.231-.125-.023-.2.11-.076.159.015-.114.125-.132.151-.238-.246-.034-.064-.519-.242-.621C256.623,6.231,256.551,6.083,256.418,6.1Zm8.691,1.473c0-.129,0-.261-.008-.39-.144-.019-.39-.326-.541-.068C264.8,7.215,264.773,7.582,265.11,7.575Zm-8.358-.227c-.288.288-.416,0-.617.091.091.011.087.121.083.235C256.532,7.7,256.755,7.632,256.751,7.348Zm-4.016.159c.136.14.3-.03.3-.242C252.837,7.246,252.709,7.3,252.735,7.507ZM255.1,5.815c.129-.2-.095-.273.068-.394.061.015.151,0,.155.076-.015.114-.125.132-.151.238.549.072.572-.363.92-.488-.03.3.45-.019.541-.087.026-.189-.144-.167-.083-.39-.28.026-.3-.212-.545-.223a.592.592,0,0,0,.167.545c-.322.159-.405.079-.613.326-.061-.178-.439-.015-.394-.307.144-.038.466.1.382-.163C255.233,4.8,254.688,5.47,255.1,5.815Zm3.233-.844c-.182-.019.083-.212.072-.314-.076,0-.155,0-.231,0C258.129,4.819,258.2,5.247,258.33,4.97Zm-.689.326c0,.079.064.091.079.155a1.274,1.274,0,0,0-.307.242c.144.061.314.095.39.227.121-.114-.155-.538.144-.628-.4-.03-.163-.375-.4-.462C257.512,4.959,257.452,5.527,257.641,5.3Zm1.018.685c.242-.049.329-.242.534-.326-.382.11-.3-.276-.549-.3A.774.774,0,0,1,258.659,5.981Zm-8.423.322c-.026-.254.28-.189.379-.322-.3.079-.216-.31-.625-.3C250.274,5.993,250.025,6.121,250.237,6.3Zm1.079-.1c.363.045.492-.136.693-.25-.076,0-.155,0-.231,0,.049-.265-.136-.284-.314-.307-.1.2.235.318.008.39-.019-.083-.132-.185-.155-.076C251.444,6,251.3,6.068,251.315,6.2Zm1.094.447c.034.136-.11.2,0,.235a.343.343,0,0,1,.307-.163c-.1-.326.186-.447.14-.787-.31-.019-.314-.363-.7-.3-.1.2.31.238.083.31-.049-.042-.238-.314-.31-.072.314.095-.015.4.163.466.057-.148.231-.061.072-.238.238.053.144-.216.382-.163-.121.246-.061.307-.144.473-.106-.1-.291-.1-.307.083.238.061.394,0,.466.068,0,.053,0,.106,0,.155C252.489,6.727,252.47,6.666,252.409,6.651Zm-2.866-.178c.178.038.53-.136.3-.238-.064.163-.288-.167-.39-.227C249.408,6.246,249.54,6.288,249.544,6.473Zm12.526-.011c.019-.185.265-.151.223-.4-.079,0-.155,0-.231,0C262.112,6.208,261.843,6.4,262.07,6.462Zm2.551-.049c.189-.208-.117-.348-.318-.386C264.356,6.212,264.417,6.39,264.621,6.413Zm-18.855.681c.083.026.186.091.076,0-.064-.269.31-.106.223-.4-.3.095-.541-.227-.617.091.363,0-.087.182-.072.314.375.11.151-.363.458-.322C245.857,6.928,245.755,6.954,245.766,7.094Zm6.114.117c.11-.045.4.083.386-.087-.31-.1-.386-.447-.632-.613C251.535,6.931,251.9,6.867,251.879,7.211Zm-3.793-.083c.193.008.238-.125.3-.242-.11-.015-.132-.125-.235-.151A.535.535,0,0,0,248.086,7.128Zm15.46-.3c-.019.155.106.151.159.231-.083.114-.079.193.083.235.1-.31.394-.432.606-.64-.061-.015-.151,0-.155-.076.061-.019.087-.068.072-.159-.239.151-.515.413-.53.56C263.758,6.867,263.611,6.89,263.546,6.825Zm-9.891.273c-.121-.223.106-.36-.238-.386C253.488,6.844,253.42,7.128,253.655,7.1Zm8.267-.318c.265-.117.367.079.538-.091-.061-.015-.091-.064-.079-.155A.364.364,0,0,0,261.922,6.78Zm-5.712.5c.133-.076.416,0,.382-.242-.22.068-.2-.106-.39-.072C256.206,7.071,256.206,7.177,256.21,7.28ZM262.854,7a.342.342,0,0,0,.163.31c-.019-.22.227-.189.223-.4C263.02,6.848,263.043,7.022,262.854,7Zm-7.261.3c-.011-.095-.027-.185-.159-.151.011.227.182.288.318.386-.1-.193.034-.246-.083-.31C255.665,7.261,255.657,7.306,255.593,7.295Zm-9.35.416c-.1-.079-.288-.072-.39-.151C245.861,7.844,246.133,7.946,246.243,7.711Zm.462-.087c.015.117-.023.288.083.31.117-.246.314-.269.386-.008,0-.129.212-.049.227-.163C247.136,7.639,247.072,7.476,246.7,7.624Z" transform="translate(-147.065 0)" fill="#ffab00" fill-rule="evenodd"/>
      <path id="Path_1171" data-name="Path 1171" d="M122.28,7.1c.163-.242.485.015.621.064-.1.235-.061.386.163.466C122.818,7.761,122.606,7.163,122.28,7.1Z" transform="translate(-71.79 -1.957)" fill="#ffab00" fill-rule="evenodd"/>
      <path id="Path_1172" data-name="Path 1172" d="M240.168,5.112a.533.533,0,0,1-.45.712c-.011-.212.125-.159-.008-.314-.178-.019-.292.023-.307.163.03.11.136,0,.151-.083.182.019,0,.291-.072.314.053.079.178.079.159.231.322.083.3-.17.538-.167.015.193-.117.246-.148.394a.414.414,0,0,0-.541-.068c.038-.3-.337-.178-.394-.386-.11.1-.11.3-.223.4-.072-.083-.284-.019-.235-.231.14-.011.167.091.31.072.019-.208-.167-.2-.314-.231-.03-.132.057-.148.151-.159-.053-.159-.39-.015-.314-.307.344.314.193-.322.458-.322-.072-.227-.117-.087-.31-.072a.458.458,0,0,0,.072-.314c.216-.061.3.416.39.227.087.117-.11.375-.064.549.326-.061.613-.462.772-.095.061-.015.076-.079.155-.079.091-.254-.25-.057-.163-.31.238.053.144-.22.382-.163.125.276-.261.053-.227.238C239.956,5.214,240.172,5.214,240.168,5.112Z" transform="translate(-143.992 -0.551)" fill="#ffab00" fill-rule="evenodd"/>
      <path id="Path_1173" data-name="Path 1173" d="M229.892,5.858c-.079-.216.068-.39.14-.708,0,.326.182.363.322.7C230.188,5.608,230.033,5.6,229.892,5.858Z" transform="translate(-138.652 -0.808)" fill="#ffab00" fill-rule="evenodd"/>
      <path id="Path_1174" data-name="Path 1174" d="M288.632,5.2c.541.257.125-.288.534-.322-.015-.091-.144-.064-.235-.076a.734.734,0,0,1,.3-.477c.432.28.458-.1,1-.019.072.25-.254.114-.227.318-.186.038-.17-.14-.386-.072.314.2.22.394.628.538-.363.155-.553-.064-.78-.3-.11.019-.023.235-.151.238-.026.189.352-.049.235.231a.648.648,0,0,0-.765.409c.034.151.3.057.239.307-.14-.068-.2-.216-.466-.148C288.693,5.514,288.863,5.544,288.632,5.2Z" transform="translate(-175.126 -0.278)" fill="#ffab00" fill-rule="evenodd"/>
      <path id="Path_1175" data-name="Path 1175" d="M304.257,5.454m-.034,2.271c-.36.382-.447-.273-.856-.3.008.31.4.22.322.621a2.687,2.687,0,0,1-.394-.382c-.178.121-.114.193-.068.394-.136.011-.163-.091-.31-.072a.467.467,0,0,0-.4-.7c-.042-.151.379-.288.31-.008.348-.223-.318-.863.212-.943a1.046,1.046,0,0,1-.238-.386c.03-.17.345.14.159.231.291.076.117-.3.382-.242.026.28-.227.291-.223.553.208.049.148-.163.227-.238.106.023.068.193.083.31.045-.023.3-.2.31-.008.182-.053.121-.344.458-.242a.315.315,0,0,0-.466-.148c-.027-.318.185-.5-.242-.466-.068-.22.106-.2.068-.394.265-.068.3.11.541.068,0,.155.008.314.008.469m.125,2.264c-.091.015-.064.144-.072.235m-.223.477M304.188,6" transform="translate(-183.797 -0.9)" fill="#ffab00" fill-rule="evenodd"/>
      <path id="Path_1176" data-name="Path 1176" d="M272.306,4.72c.087.015.045.079,0,.079.015.091.144.064.235.072-.413.182-.023.435-.14.708-.25.042-.25-.534-.39-.148-.133-.023.095-.273-.239-.231-.034-.189.14-.174.068-.394C272.079,4.773,272.242,5,272.306,4.72Z" transform="translate(-164.691 -0.541)" fill="#ffab00" fill-rule="evenodd"/>
      <path id="Path_1177" data-name="Path 1177" d="M225.989,6.467a.351.351,0,0,0-.159-.31c.072-.2.3.1.541-.011-.045.072-.091.144,0,.155A3.071,3.071,0,0,1,225.989,6.467Z" transform="translate(-136.142 -1.391)" fill="#ffab00" fill-rule="evenodd"/>
      <path id="Path_1178" data-name="Path 1178" d="M230.247,7.088a.437.437,0,0,1-.307.083c.057-.3.507-.129.466.148A.21.21,0,0,1,230.247,7.088Z" transform="translate(-138.696 -1.966)" fill="#ffab00" fill-rule="evenodd"/>
      <path id="Path_1179" data-name="Path 1179" d="M303.67,6.282c.1-.136.155-.31.379-.322-.144.151.057.344.314.307C304.177,6.543,303.92,6.1,303.67,6.282Z" transform="translate(-184.516 -1.311)" fill="#ffab00" fill-rule="evenodd"/>
      <path id="Path_1180" data-name="Path 1180" d="M291.683,7.23c.246.1-.39.375-.144.473-.072.057-.31.008-.223.4-.265.068-.329-.079-.466-.148C290.952,7.54,291.35,7.415,291.683,7.23Z" transform="translate(-176.549 -2.101)" fill="#ffab00" fill-rule="evenodd"/>
      <path id="Path_1181" data-name="Path 1181" d="M49.782,14.149c.129-.257.2.2.466.068,0,.11-.008.223.083.235a.344.344,0,0,1-.307.163c.242-.216-.307-.363-.231,0-.091-.011-.068-.14-.083-.235C49.9,14.5,49.933,14.115,49.782,14.149Z" transform="translate(-26.691 -6.35)" fill="#ffab00" fill-rule="evenodd"/>
      <path id="Path_1182" data-name="Path 1182" d="M304.405,13.483c.117.212.261.148.307-.083a.37.37,0,0,0,.235.076c-.227.28.091.22-.223.473a.369.369,0,0,0-.235-.072C304.549,13.65,304.379,13.673,304.405,13.483Z" transform="translate(-184.971 -5.935)" fill="#ffab00" fill-rule="evenodd"/>
      <path id="Path_1183" data-name="Path 1183" d="M42.995,5.9c.144-.079.261.231.31-.008.22.386-.1.405-.216.867-.276-.132-.189.057-.462.087.008-.114.333-.413-.008-.39C42.688,6.212,42.991,6.2,42.995,5.9Z" transform="translate(-22.285 -1.264)" fill="#ffab00" fill-rule="evenodd"/>
      <path id="Path_1184" data-name="Path 1184" d="M111.485,7.054c.076,0,.155,0,.231,0-.011.28.174.424.095.859-.541-.148-.182-.386-.553-.538C111.231,7.167,111.557,7.3,111.485,7.054Z" transform="translate(-64.939 -1.989)" fill="#ffab00" fill-rule="evenodd"/>
      <path id="Path_1185" data-name="Path 1185" d="M120.493,6.4c.356-.057.31.257.7.379-.068.14-.284.136-.3.318-.182-.076-.254-.265-.242-.545-.106.261-.659,0-.625-.379.178-.026.091.223.235.231.223-.14-.182-.28-.087-.545.3-.026.291.276.625.223C120.747,6.236,120.565,6.262,120.493,6.4Z" transform="translate(-70.39 -1.246)" fill="#ffab00" fill-rule="evenodd"/>
      <path id="Path_1186" data-name="Path 1186" d="M191.816,8.174c.027.329-.28.352.087.545a.258.258,0,0,1-.466.008,1.084,1.084,0,0,0,.011.549.485.485,0,0,1-.386-.072c.242-.344.151-.481-.015-.859.159.155.208.015.307-.083-.1-.129-.572.068-.625-.3.288-.11.541.223.7-.015C191.551,8.125,191.506,8.371,191.816,8.174Z" transform="translate(-114.329 -2.541)" fill="#ffab00" fill-rule="evenodd"/>
    </g>
  </svg>
  